<svg xmlns="http://www.w3.org/2000/svg" xmlns:xlink="http://www.w3.org/1999/xlink" version="1.1" x="0px" y="0px" viewBox="0 0 91 91" style="enable-background:new 0 0 91 91;max-width:100%" xml:space="preserve" height="100%"><g style="" fill="#fed741"><path d="M74.9,4.7h-2.4V0H39.9H28.8h-9.2v4.7h-2.7c-1.7,0-3.2,0.6-4.4,1.8c-1.2,1.2-1.8,2.7-1.8,4.4c0,9.1,5.3,17.6,13.5,21.6   l0-0.1c3.1,7.8,7.6,13.8,12.9,16.6c0.2,0.1,0.4,0.2,0.6,0.3l0.1,0c2,1.2,3.3,3.4,3.3,5.7c0,3.6-3,6.6-6.6,6.6c-0.9,0-1.7,0.3-2.4,1   c-0.6,0.6-0.9,1.4-0.9,3.1H20.9v21.9h-2.8v3.2h2.8h50h2.8v-3.2h-2.8V65.7H60.8c-0.1-1.7-0.3-2.5-0.9-3.1c-0.6-0.6-1.5-1-2.4-1   c-3.6,0-6.6-3-6.6-6.6c0-2.4,1.3-4.6,3.2-5.7l0.1,0c0.2-0.1,0.4-0.2,0.6-0.3c5.3-2.8,9.8-8.8,13-16.6c8.1-4.1,13.3-12.5,13.3-21.5   c0-1.7-0.6-3.2-1.8-4.4C78.1,5.4,76.5,4.7,74.9,4.7z M67.7,87.7H24.1V68.9h43.6V87.7z M36.7,3.2v11l-2.4-1.7l-2.4,1.7v-11H36.7z    M13.9,10.9c0-0.8,0.3-1.6,0.9-2.1c0.6-0.6,1.3-0.9,2.1-0.9h2.7c0.1,7.1,1.2,14,3,20C17.2,24,13.9,17.7,13.9,10.9z M53.3,46.2   c-0.2,0.1-0.3,0.2-0.5,0.3l-0.2,0.1c-3,1.7-4.9,5-4.9,8.5c0,5.4,4.4,9.8,9.8,9.8c0,0,0,0,0.1,0c0,0.1,0,0.3,0.1,0.6H34.4   c0-0.3,0-0.5,0.1-0.6c0,0,0,0,0.1,0c5.4,0,9.8-4.4,9.8-9.8c0-3.5-1.9-6.7-5-8.5l-0.2-0.1c-0.2-0.1-0.3-0.2-0.5-0.2   c-9.3-4.9-15.9-21.1-15.9-39.4V3.2h6v17.2l5.6-4l5.6,4V3.2h29.4v3.6C69.2,25.1,62.7,41.3,53.3,46.2z M69.4,27.7   c1.8-6,2.8-12.7,2.9-19.8h2.5c0.8,0,1.6,0.3,2.1,0.9c0.6,0.6,0.9,1.3,0.9,2.1C77.9,17.5,74.7,23.8,69.4,27.7z" style="" fill="#fed741"></path><path d="M62.8,6.9c0,0.1,0.1,7.9-2.6,17l3,0.9C66,15.2,66,7.2,66,6.8L62.8,6.9z" style="" fill="#fed741"></path><path d="M61.1,25.7L61.1,25.7c-0.9,0-1.6,0.7-1.6,1.6s0.7,1.6,1.6,1.6s1.6-0.7,1.6-1.6S62,25.7,61.1,25.7z" style="" fill="#fed741"></path><path d="M61.4,73H30.9v10.6h30.5V73z M58.2,80.4H34v-4.2h24.2V80.4z" style="" fill="#fed741"></path></g></svg>