<svg xmlns="http://www.w3.org/2000/svg" xmlns:xlink="http://www.w3.org/1999/xlink" version="1.1" x="0px" y="0px" viewBox="0 0 24 24" enable-background="new 0 0 24 24" xml:space="preserve" style="max-width:100%" height="100%"><g style="" fill="#fed741"><ellipse cx="13.8" cy="11" rx="0.531" ry="0.489" style="" fill="#fed741"></ellipse><path d="M9.776,13.866c0.542,0.271,1.188,0.415,1.857,0.415c0.139,0,0.279-0.006,0.419-0.019c0.492-0.044,0.959-0.161,1.389-0.346   c0.202-0.088,0.296-0.323,0.208-0.526c-0.089-0.204-0.326-0.294-0.526-0.208c-0.351,0.152-0.734,0.248-1.141,0.284   c-0.671,0.061-1.324-0.052-1.849-0.314c-0.193-0.1-0.438-0.021-0.536,0.178C9.498,13.527,9.578,13.767,9.776,13.866z" style="" fill="#fed741"></path><ellipse cx="9.326" cy="11" rx="0.531" ry="0.489" style="" fill="#fed741"></ellipse><path d="M9.81,10.279c0.056,0.026,0.113,0.038,0.171,0.038c0.149,0,0.294-0.084,0.361-0.229c0.095-0.2,0.009-0.438-0.19-0.533   c-0.464-0.218-1.181-0.22-1.65-0.001c-0.2,0.093-0.287,0.331-0.193,0.531c0.093,0.2,0.331,0.288,0.531,0.193   C9.093,10.161,9.56,10.161,9.81,10.279z" style="" fill="#fed741"></path><path d="M14.818,10.087c0.094-0.2,0.008-0.438-0.192-0.532c-0.467-0.217-1.182-0.219-1.65,0c-0.2,0.093-0.287,0.331-0.193,0.531   c0.093,0.2,0.331,0.288,0.531,0.193c0.254-0.118,0.721-0.118,0.973,0c0.055,0.025,0.112,0.038,0.17,0.038   C14.606,10.317,14.75,10.232,14.818,10.087z" style="" fill="#fed741"></path><path d="M23.958,22.778c-1.272-4.495-5.064-4.596-6.203-4.518c-0.15-0.348-0.472-0.902-1.126-1.393   c1.251-0.723,2.335-1.921,2.335-3.92v-1.637c0.543-0.166,0.944-0.638,0.944-1.213V8.34c0-0.582-0.411-1.056-0.963-1.216   c-0.194-3.564-3.426-6.411-7.382-6.411c-3.926,0-7.139,2.804-7.377,6.331C3.61,7.202,3.185,7.706,3.185,8.309v1.819   c0,0.729,0.618,1.322,1.378,1.322c0.221,0,0.4-0.179,0.4-0.4c0-0.02-0.009-0.037-0.011-0.056c0.003-0.019,0.011-0.036,0.011-0.056   V7.46c0-3.28,2.96-5.948,6.6-5.948s6.6,2.668,6.6,5.948v5.486c0,3.252-3.453,3.994-4.793,4.159   c-0.146-0.205-0.381-0.348-0.661-0.348h-1.091c-0.446,0-0.81,0.344-0.81,0.764v0.061c0,0.42,0.365,0.764,0.81,0.764h1.091   c0.326,0,0.606-0.187,0.734-0.451c0.325-0.043,0.767-0.122,1.261-0.253L12,20.212l-3.623-3.441v-0.902   c0.37,0.236,0.762,0.446,1.191,0.598c0.045,0.016,0.09,0.023,0.134,0.023c0.165,0,0.319-0.103,0.377-0.267   c0.074-0.208-0.035-0.437-0.243-0.51c-1.938-0.685-3.24-2.446-3.24-4.381V6.601c1.14-0.119,2.101-0.729,2.614-1.589   c1.109,2.469,3.944,3.754,6.687,3.754c0.306,0,0.606-0.041,0.907-0.073v3.731c0,1.652-0.962,2.633-3.217,3.282   c-0.213,0.061-0.335,0.283-0.274,0.495c0.051,0.176,0.211,0.29,0.385,0.29c0.036,0,0.073-0.005,0.11-0.016   c1.63-0.468,3.797-1.398,3.797-4.05V8.28c0-0.013-0.006-0.024-0.008-0.037c-0.001-0.016,0.004-0.03,0.002-0.046   c-0.004-0.022-0.016-0.039-0.023-0.06c-0.003-0.007-0.005-0.014-0.008-0.02c-0.07-0.171-0.249-0.282-0.428-0.25   c-3.146,0.517-6.914-0.954-7.529-4.225c0-0.006,0.002-0.012,0.002-0.018c0-0.221-0.18-0.4-0.4-0.4s-0.4,0.179-0.4,0.4   c0,1.221-1.174,2.214-2.616,2.214c-0.221,0-0.4,0.179-0.4,0.4v5.095c0,1.506,0.676,2.911,1.781,3.926v1.461   c-0.795,0.521-1.166,1.158-1.332,1.542c-1.14-0.077-4.93,0.024-6.202,4.518c-0.061,0.212,0.063,0.434,0.275,0.494   c0.037,0.01,0.073,0.015,0.109,0.015c0.175,0,0.335-0.115,0.385-0.291c1.192-4.215,4.805-4.016,5.517-3.93l3.97,3.844   c0.083,0.08,0.196,0.118,0.308,0.112c0.114-0.008,0.219-0.065,0.288-0.156L12,21.421l1.106,1.445   c0.069,0.091,0.174,0.147,0.288,0.156c0.115,0.008,0.226-0.032,0.308-0.112l3.969-3.844c0.708-0.085,4.324-0.285,5.518,3.93   c0.05,0.176,0.21,0.291,0.385,0.291c0.036,0,0.072-0.005,0.109-0.015C23.894,23.212,24.018,22.991,23.958,22.778z M3.986,10.128   V8.309c0-0.147,0.068-0.279,0.177-0.374v2.567C4.054,10.407,3.986,10.275,3.986,10.128z M19.107,10.097   c0,0.126-0.057,0.238-0.144,0.325V8.015c0.087,0.087,0.144,0.199,0.144,0.325V10.097z M10.532,22.023l-3.556-3.444   c0.11-0.259,0.379-0.722,0.956-1.127l3.532,3.354L10.532,22.023z M13.467,22.023l-0.932-1.217l3.533-3.354   c0.576,0.405,0.845,0.868,0.955,1.127L13.467,22.023z" style="" fill="#fed741"></path></g></svg>