<svg xmlns="http://www.w3.org/2000/svg" viewBox="0 0 64 64" x="0px" y="0px" style="max-width:100%" height="100%"><g style="" fill="#f55881"><path d="M48,27H16a7.008,7.008,0,0,0-7,7v8a7.008,7.008,0,0,0,7,7H27.757a3.972,3.972,0,0,0,2.829-1.172,2.049,2.049,0,0,1,2.828,0A3.972,3.972,0,0,0,36.243,49H48a7.008,7.008,0,0,0,7-7V34A7.008,7.008,0,0,0,48,27Zm5,15a5.006,5.006,0,0,1-5,5H36.243a1.987,1.987,0,0,1-1.415-.586,4,4,0,0,0-5.656,0A1.987,1.987,0,0,1,27.757,47H16a5.006,5.006,0,0,1-5-5V34a5.006,5.006,0,0,1,5-5H48a5.006,5.006,0,0,1,5,5Z" style="" fill="#f55881"></path><rect x="39" y="43" width="2" height="2" style="" fill="#f55881"></rect><rect x="43" y="42" width="2" height="3" style="" fill="#f55881"></rect><rect x="47" y="41" width="2" height="4" style="" fill="#f55881"></rect><rect x="15" y="31" width="5" height="2" style="" fill="#f55881"></rect><rect x="22" y="31" width="2" height="2" style="" fill="#f55881"></rect><path d="M60,32V17a7.008,7.008,0,0,0-7-7H49a7.04,7.04,0,0,0-4.2,1.4L34.667,19H29.333L19.2,11.4A7.04,7.04,0,0,0,15,10H11a7.008,7.008,0,0,0-7,7V32a2,2,0,0,0-2,2v8a2,2,0,0,0,2,2H5.191A11.012,11.012,0,0,0,16,53H48a11.012,11.012,0,0,0,10.809-9H60a2,2,0,0,0,2-2V34A2,2,0,0,0,60,32ZM11,12h4a5.028,5.028,0,0,1,3,1l10.4,7.8a1,1,0,0,0,.6.2h6a1,1,0,0,0,.6-.2L46,13a5.028,5.028,0,0,1,3-1h4a5.006,5.006,0,0,1,5,5V29.444A11.007,11.007,0,0,0,48,23H16A11.007,11.007,0,0,0,6,29.444V17A5.006,5.006,0,0,1,11,12ZM4,42V34H5v8Zm44,9H16a9.011,9.011,0,0,1-9-9V34a9.011,9.011,0,0,1,9-9H48a9.011,9.011,0,0,1,9,9v8A9.011,9.011,0,0,1,48,51Zm12-9H59V34h1Z" style="" fill="#f55881"></path></g></svg>