<svg xmlns="http://www.w3.org/2000/svg" xmlns:xlink="http://www.w3.org/1999/xlink" version="1.1" x="0px" y="0px" viewBox="0 0 1024 1024" style="enable-background:new 0 0 1024 1024;max-width:100%" xml:space="preserve" height="100%"><g style="" fill="#fff"><g style="" fill="#fff"><g style="" fill="#fff"><path d="M561.7,394.5c11.8,0,23-10.3,22.5-22.5c-0.5-12.2-9.9-22.5-22.5-22.5c-11.8,0-23,10.3-22.5,22.5     C539.7,384.2,549,394.5,561.7,394.5L561.7,394.5z" style="" fill="#fff"></path></g></g><g style="" fill="#fff"><g style="" fill="#fff"><path d="M900.9,345c0.4,0.9,2.8,6.3,0.5,1.1c0.6,1.3,1.1,2.7,1.7,4.1c1.2,3,2.4,6,3.6,9c2.3,6,4.5,12.1,6.5,18.3     c3.9,11.8,7.4,23.8,10.3,35.9c2.9,12.2,5.4,24.6,7.3,37c0.3,1.8,0.6,3.6,0.8,5.4c-0.5-5.2-0.1-1,0,0.3c0.4,3,0.7,6,1,9     c0.7,7,1.3,14,1.7,21c1.2,21.7,0.9,43.5-1,65.1c-0.4,4.8-0.9,9.6-1.5,14.5c-0.1,1.1-0.3,2.3-0.4,3.4c-0.6,5,0.8-5.5,0.1-0.5     c-0.4,2.7-0.8,5.4-1.2,8.1c-1.5,9.4-3.3,18.8-5.4,28.1c-4.3,18.8-9.7,37.3-16.4,55.4c-1.5,4.2-3.1,8.3-4.8,12.4     c-0.7,1.6-3.9,8.6-0.8,2c-1.1,2.4-2.1,4.9-3.2,7.3c-3.8,8.5-7.8,16.8-12.1,25c-8.8,16.7-18.6,32.9-29.4,48.4     c-2.5,3.6-5.1,7.1-7.7,10.7c-1.3,1.7-2.7,3.4-4,5.2c3.7-5.4,1.2-1.6,0.3-0.4c-0.8,1-1.6,2.1-2.4,3.1c-6,7.5-12.2,14.8-18.7,21.9     c-12.4,13.6-25.5,26.4-39.5,38.3c-3.5,3-7,5.9-10.6,8.8c-1.9,1.5-3.8,3-5.7,4.5c-1.1,0.9-3.4,2.2,1.4-1.1c-1.4,1-2.8,2.1-4.2,3.2     c-7.4,5.5-14.9,10.8-22.6,15.8c-15.6,10.2-31.9,19.5-48.7,27.7c-4.2,2-8.4,4-12.6,5.9c-2,0.9-4,1.8-6.1,2.7c-0.6,0.2-4.7,2-1,0.4     c3.8-1.6-1.6,0.6-2.2,0.9c-8.7,3.5-17.4,6.8-26.3,9.7c-18.4,6.2-37.1,11.1-56.1,14.8c-4.5,0.9-9,1.7-13.4,2.4     c-2.3,0.4-4.5,0.7-6.8,1c-1.4,0.2-2.7,0.3-4.1,0.6c6.8-1.2,2-0.3,0.5-0.1c-9.9,1.2-19.8,2.1-29.7,2.7c-19.8,1.1-39.8,1-59.6-0.5     c-4.6-0.3-9.2-0.8-13.8-1.2c-2.5-0.3-5-0.6-7.5-0.9c-1.1-0.1-2.3-0.3-3.4-0.4c7,0.6,1.5,0.2-0.1,0c-9.7-1.4-19.3-3.1-28.9-5.2     c-18.7-4-37.1-9.2-55.1-15.5c-4.4-1.6-8.8-3.2-13.1-4.9c-2.1-0.8-4.1-1.6-6.2-2.5c-0.8-0.3-1.6-0.7-2.5-1     c-2.2-0.9-1.6-0.7,1.7,0.7c-0.8-0.3-1.6-0.7-2.4-1c-8.5-3.7-16.9-7.6-25.2-11.8c-16.8-8.6-33.1-18.2-48.8-28.9     c-3.6-2.5-7.2-5-10.8-7.6c-1.8-1.3-3.5-2.6-5.3-3.9c-1.1-0.8-2.1-1.6-3.1-2.4c-3.4-2.5,4,3.1,0.4,0.3c-7.4-5.8-14.6-11.8-21.7-18     c-13.9-12.3-27-25.5-39.3-39.4c-2.9-3.3-5.7-6.6-8.5-10c-1.5-1.9-3.1-3.7-4.6-5.6c-0.7-0.9-1.4-1.7-2-2.6c-0.4-0.6-4-5-1.5-1.9     c2.5,3.1-0.3-0.4-0.6-0.9c-0.7-0.9-1.3-1.7-2-2.6c-1.4-1.9-2.9-3.9-4.3-5.8c-2.8-3.9-5.6-7.9-8.3-11.9     c-10.3-15.3-19.7-31.3-28-47.8c-4.4-8.7-8.2-17.6-12.3-26.5c3.1,6.5-0.2-0.4-0.8-2c-0.8-2.1-1.6-4.1-2.4-6.2     c-1.8-4.6-3.5-9.2-5.1-13.8c-6.4-18.3-11.5-36.9-15.4-55.9c-1.9-9.4-3.5-18.8-4.9-28.3c-0.7-5,0.7,5.5,0.1,0.5     c-0.1-0.9-0.2-1.8-0.3-2.7c-0.3-2.3-0.5-4.6-0.8-6.9c-0.5-5.1-1-10.1-1.3-15.2c-1.4-20.1-1.5-40.2-0.3-60.3     c0.6-9.7,1.6-19.3,2.7-29c0.6-5-0.8,5.5-0.1,0.5c0.2-1.1,0.3-2.3,0.5-3.4c0.4-2.5,0.8-5,1.2-7.4c0.8-4.9,1.7-9.9,2.7-14.8     c3.7-18.5,8.6-36.8,14.7-54.7c3.1-9.3,6.6-18.4,10.3-27.5c0.5-1.3,1.8-3.8-0.7,1.7c0.6-1.2,1-2.4,1.6-3.7c0.9-2,1.8-4.1,2.7-6.1     c2-4.4,4.1-8.8,6.2-13.2c8.4-17,17.8-33.4,28.3-49.1c5.1-7.7,10.4-15.2,16-22.5c0.4-0.5,3.1-4,0.6-0.9c-2.5,3.1,0.3-0.4,0.7-0.8     c1.4-1.7,2.7-3.4,4.1-5.1c3-3.7,6.1-7.4,9.3-11.1c12.3-14.2,25.5-27.7,39.4-40.2c6.8-6.1,13.8-12.1,21-17.8     c1-0.8,2.1-1.6,3.1-2.4c2.9-2.3-1.1,0.9-1.4,1.1c2-1.3,3.8-2.9,5.8-4.3c4-3,8.1-5.9,12.3-8.8c15.2-10.5,31-20,47.4-28.5     c8.6-4.5,17.4-8.7,26.3-12.6c1.7-0.7,8.7-3.3,2-0.9c2.1-0.7,4.1-1.7,6.2-2.5c4.5-1.8,9.1-3.6,13.7-5.2     c18.1-6.6,36.7-12,55.6-16.1c9.3-2.1,18.7-3.8,28.2-5.2c2.3-0.3,4.5-0.6,6.8-1c-7.4,1.3,0.4,0,2.2-0.2c5-0.6,10.1-1.1,15.1-1.5     c22.4-1.9,45-2.1,67.4-0.6c6.1,0.4,12.2,0.9,18.2,1.6c3,0.3,6,0.7,9,1.1c6.1,0.8-4.9-0.7,1.2,0.2c1.8,0.3,3.6,0.5,5.4,0.8     c12.7,2,25.4,4.5,37.9,7.6c11.8,2.9,23.4,6.3,34.9,10.2c5.6,1.9,11.1,3.9,16.6,6c2.7,1,5.5,2.1,8.2,3.2c1.6,0.7,3.3,1.3,4.9,2     c-5.2-2.3,0.2,0.1,1.1,0.5c5.8,2.5,11,4,17.3,2.3c5.2-1.4,10.9-5.5,13.4-10.3c5.1-9.7,3.5-25.8-8.1-30.8     c-51-22.2-104.6-35.6-160.1-39.3c-44-2.9-88.6,0.8-131.7,10.2c-78.6,17.3-152,55.9-211.7,109.6c-59.5,53.5-104.4,122.6-130,198.3     c-26.8,79.1-31,165.3-13.9,246.9c16.6,78.8,54.6,152.5,107.9,212.8c53,59.9,121.7,105.3,197.1,131.6c78.8,27.5,165,32.4,246.7,16     c79.1-15.9,153-53.3,213.8-106.1c60.4-52.5,106.3-120.7,133.2-196c31-86.5,35-182.5,12.6-271.4c-6.5-25.7-15.4-50.5-26-74.7     c-4.7-10.8-21.4-14.1-30.8-8.1C897.7,321.4,895.8,333.4,900.9,345L900.9,345z" style="" fill="#fff"></path></g></g><g style="" fill="#fff"><g style="" fill="#fff"><path d="M652,484.8c11.8,0,23-10.3,22.5-22.5c-0.5-12.2-9.9-22.5-22.5-22.5c-11.8,0-23,10.3-22.5,22.5     C630,474.5,639.4,484.8,652,484.8L652,484.8z" style="" fill="#fff"></path></g></g><g style="" fill="#fff"><g style="" fill="#fff"><path d="M561.7,394.5c11.8,0,23-10.3,22.5-22.5c-0.5-12.2-9.9-22.5-22.5-22.5c-11.8,0-23,10.3-22.5,22.5     C539.7,384.2,549,394.5,561.7,394.5L561.7,394.5z" style="" fill="#fff"></path></g></g><g style="" fill="#fff"><g style="" fill="#fff"><path d="M786.1,452.1c0.9,4,1.7,7.9,2.4,11.9c0.4,2.2,0.8,4.3,1.1,6.5c0.1,0.9,0.3,1.9,0.4,2.8     c0.1,0.7,0.1,4.4,0.2,1.7c0.2-2.9,0.1,0.9,0.2,1.7c0.1,0.9,0.2,1.9,0.3,2.8c0.2,1.9,0.4,3.8,0.6,5.7c0.4,4.4,0.7,8.9,0.9,13.4     c0.6,14.1,0.3,28.1-1,42.2c-0.3,3-0.6,6-1,8.9c-0.5,4.2,0.7-4.7,0.1-0.5c-0.3,1.8-0.5,3.6-0.8,5.4c-1,6.1-2.1,12.1-3.5,18.1     c-2.7,12-6.1,23.9-10.3,35.5c-1,2.7-2,5.4-3,8.1c-0.5,1.2-1,2.5-1.5,3.7c-0.3,0.8-0.7,1.6-1,2.5c-1.1,2.7,1.9-4.3,0.7-1.7     c-2.5,5.4-4.9,10.9-7.6,16.2c-5.4,10.8-11.5,21.3-18.2,31.3c-3.3,4.9-6.7,9.8-10.3,14.5c-0.4,0.5-0.8,1-1.2,1.6     c-1.4,2,1.6-2.1,1.5-2c-1,1.1-1.9,2.4-2.9,3.6c-1.9,2.4-3.9,4.7-5.9,7.1c-7.7,9-15.9,17.5-24.5,25.5c-4.5,4.2-9.1,8.2-13.8,12.1     c-1,0.8-2,1.7-3.1,2.5c-0.5,0.4-1,0.8-1.5,1.2c-2.9,2.3,1.2-0.9,1.4-1.1c-2.5,1.7-4.9,3.7-7.4,5.5c-9.6,6.9-19.6,13.3-30,19     c-5.4,3-10.9,5.8-16.5,8.5c-2.4,1.1-4.8,2.3-7.2,3.3c-0.7,0.3-5.8,2.5-2.2,1c3.6-1.5-2.1,0.8-2.8,1.2     c-11.2,4.5-22.7,8.3-34.3,11.4c-12.1,3.2-24.3,5.4-36.7,7.4c-0.2,0,5.1-0.6,2.6-0.4c-0.7,0.1-1.4,0.2-2.1,0.3     c-1.6,0.2-3.2,0.4-4.8,0.5c-3.2,0.3-6.4,0.6-9.7,0.8c-6.3,0.4-12.6,0.7-18.9,0.8c-12.6,0.1-25.2-0.5-37.7-2     c-1.1-0.1-6.3-0.8-2.5-0.3c3.8,0.5-0.9-0.1-1.8-0.3c-3.4-0.5-6.8-1.1-10.1-1.7c-6-1.1-12-2.4-17.9-3.9     c-11.7-2.9-23.3-6.5-34.6-10.8c-2.7-1-5.4-2.1-8.1-3.2c-3.7-1.5,4.4,2-0.1-0.1c-1.4-0.6-2.8-1.3-4.2-1.9     c-5.6-2.6-11.2-5.3-16.6-8.2c-10.5-5.6-20.6-11.8-30.4-18.5c-2.3-1.6-4.7-3.3-6.9-5c-1.2-0.9-2.5-1.8-3.7-2.8     c-2.9-2.2,3.8,3-0.1-0.1c-4.6-3.7-9.1-7.5-13.6-11.4c-9-8-17.5-16.5-25.4-25.5c-3.9-4.4-7.7-9-11.4-13.6c-2.4-3,3.1,4.2-0.1-0.1     c-0.8-1.1-1.6-2.1-2.4-3.2c-1.8-2.5-3.6-5-5.3-7.5c-6.9-9.9-13.1-20.3-18.8-31c-2.8-5.3-5.4-10.6-7.9-16.1     c-0.5-1.2-1.1-2.4-1.6-3.6c-2.2-5,1.4,3.5-0.1-0.1c-1.2-2.9-2.3-5.8-3.4-8.7c-4.3-11.3-7.9-22.9-10.8-34.6     c-1.5-6.2-2.8-12.4-4-18.6c-0.5-2.9-1-5.8-1.4-8.8c-0.1-0.9-0.8-5.6-0.3-1.8c0.5,3.9-0.2-2.1-0.4-3.2c-1.4-12.5-2-25.1-1.9-37.7     c0.1-6.5,0.4-13.1,0.8-19.6c0.2-3,0.5-6,0.8-9c0.1-1.4,0.3-2.7,0.5-4.1c0.1-0.7,0.2-1.4,0.3-2.1c0.3-2.9-0.8,5.3-0.2,1.2     c3.6-24.3,9.9-48.1,19.1-70.9c0.3-0.8,2.1-5.1,0.7-1.6c-1.4,3.4,0.6-1.2,1-2.2c1.3-2.8,2.6-5.6,3.9-8.4     c2.6-5.4,5.3-10.6,8.2-15.8c5.8-10.3,12.2-20.4,19.1-30c1.7-2.3,3.5-4.5,5.1-6.8c-3.6,5.4-0.9,1.2,0.1-0.1     c1.1-1.4,2.2-2.7,3.3-4.1c3.8-4.5,7.6-9,11.7-13.3c8-8.6,16.6-16.8,25.5-24.5c2.2-1.8,4.4-3.7,6.6-5.4c1.2-0.9,2.5-1.8,3.6-2.9     c0.1-0.1-3.9,2.9-2,1.5c0.9-0.6,1.7-1.3,2.6-2c4.7-3.5,9.6-6.9,14.5-10.2c9.9-6.5,20.2-12.5,30.8-17.8c5.3-2.6,11.1-4.6,16.2-7.6     c-0.3,0.2-5.2,2.1-1.7,0.7c0.6-0.3,1.2-0.5,1.8-0.8c1.2-0.5,2.5-1,3.7-1.5c3.1-1.2,6.2-2.4,9.4-3.5c11.4-4,23.1-7.4,35-10     c6-1.3,12-2.5,18.1-3.4c1.6-0.3,3.2-0.5,4.7-0.7c4.2-0.6-4.7,0.6-0.5,0.1c3.2-0.4,6.4-0.7,9.6-1c14.1-1.3,28.3-1.6,42.4-0.9     c4.1,0.2,8.3,0.5,12.4,0.8c1.9,0.2,3.8,0.4,5.7,0.6c1.3,0.1,2.5,0.3,3.8,0.4c0.4,0,3.6,0.6,0.8,0.1c-2.7-0.5,2.7,0.4,3.5,0.5     c2.2,0.3,4.3,0.7,6.5,1.1c4.3,0.8,8.6,1.6,12.8,2.6c11.5,2.5,24.9-3.4,27.7-15.7c2.6-11.4-3.4-25-15.7-27.7     c-59.4-13-122.5-10.1-179.9,10.5c-49.4,17.7-94.5,46.8-130.3,85.4c-35.8,38.6-62.2,85.8-75.9,136.6     c-14.3,53.2-14.8,110-1.7,163.5c12.6,51.5,38.5,99.3,73.7,138.8c35,39.3,79.5,69,128.6,87.7c51.4,19.5,107.1,24.4,161.4,16.9     c51.1-7.1,101-27.4,142.6-57.9c42.2-30.9,77.4-71.1,100.7-118.1c24.9-50.1,37-106.3,34.1-162.2c-1-18.6-3.6-37.3-7.5-55.5     c-2.5-11.5-16.5-19.3-27.7-15.7C789.7,428.4,783.4,439.8,786.1,452.1L786.1,452.1z" style="" fill="#fff"></path></g></g><g style="" fill="#fff"><g style="" fill="#fff"><path d="M652,484.8c11.8,0,23-10.3,22.5-22.5c-0.5-12.2-9.9-22.5-22.5-22.5c-11.8,0-23,10.3-22.5,22.5     C630,474.5,639.4,484.8,652,484.8L652,484.8z" style="" fill="#fff"></path></g></g><g style="" fill="#fff"><g style="" fill="#fff"><path d="M630.3,468.3c2.6,7.6,4.7,15.3,6.2,23.2c0.2,1.2,0.4,2.4,0.6,3.6c0.5,2.6-0.1-1.4-0.2-1.5     c0.6,1.5,0.4,3.8,0.6,5.4c0.4,4.3,0.6,8.6,0.6,12.9c0,3.3-0.1,6.6-0.3,9.8c-0.1,1.4-0.2,2.8-0.3,4.2c-0.1,0.7-0.1,1.4-0.2,2.1     c-0.4,3.6-0.1,0.7,0.2-1.2c-1.1,6-2.1,12-3.7,18c-0.8,2.8-1.6,5.6-2.5,8.4c-0.9,2.8-2.8,5.9-3.2,8.8c0,0.1,2-4.5,1-2.3     c-0.4,0.8-0.7,1.6-1.1,2.4c-0.5,1.2-1.1,2.4-1.7,3.6c-1.4,2.8-2.8,5.5-4.3,8.2c-3.1,5.4-6.6,10.3-10.1,15.4     c-1.3,2,1.6-2.1,1.5-1.9c-0.4,0.5-0.8,1-1.2,1.5c-1,1.2-1.9,2.4-2.9,3.5c-2,2.3-4,4.6-6.2,6.8c-4.1,4.2-8.4,8.2-13,12     c-0.5,0.4-1,0.8-1.5,1.2c-1.5,1.2-2.4,0.8,1.4-1.1c-1.1,0.5-2.2,1.6-3.2,2.3c-2.5,1.8-5.1,3.5-7.7,5.1     c-5.2,3.3-10.7,6.2-16.3,8.8c-1.2,0.5-2.5,1-3.6,1.6c-0.1,0.1,4.6-1.8,2.3-1c-0.8,0.3-1.7,0.7-2.5,1c-2.9,1.1-5.9,2.1-8.9,3.1     c-5.8,1.8-11.8,3.2-17.8,4.3c-1.3,0.2-2.7,0.4-4.1,0.7c-3.9,0.6,5.1-0.6-0.2,0c-3.2,0.3-6.5,0.6-9.7,0.7     c-6.3,0.3-12.6,0.1-18.9-0.4c-1.6-0.1-3.2-0.3-4.8-0.5c-2.5-0.2,2.8,0.4,2.6,0.4c-0.7-0.1-1.4-0.2-2-0.3c-3.4-0.5-6.7-1.2-10-1.9     c-5.9-1.3-11.7-3-17.4-5.1c-1.3-0.5-2.5-0.9-3.7-1.4c-5.1-2,3.4,1.6-0.2,0c-2.8-1.3-5.6-2.6-8.4-4c-5.3-2.7-10.4-5.8-15.3-9.1     c-1.3-0.9-2.5-1.7-3.8-2.6c-0.5-0.4-1-0.8-1.6-1.2c-2-1.3,2.1,1.6,1.9,1.5c-2.2-2.1-4.8-3.8-7.1-5.9c-4.6-4.1-8.9-8.4-13-13     c-1.9-2.1-3.6-4.4-5.5-6.5c-1.5-1.8,1.6,2.1,1.5,2c-0.2-0.5-0.8-1.1-1.2-1.6c-1-1.4-2-2.8-3-4.3c-3.3-4.9-6.4-10-9.1-15.3     c-1.3-2.6-2.5-5.2-3.7-7.8c-2.1-4.5,1.4,3.5-0.1-0.1c-0.6-1.5-1.1-2.9-1.7-4.4c-2.1-5.9-3.9-12-5.2-18.1     c-0.6-2.9-1.2-5.8-1.7-8.7c-0.1-0.7-0.2-1.4-0.3-2c-0.4-2.5,0.4,2.8,0.3,2.6c-0.1-1.8-0.4-3.7-0.6-5.5     c-0.5-6.3-0.7-12.6-0.4-18.9c0.1-3,0.3-6,0.7-9c0.1-0.7,0.2-1.4,0.2-2.1c0.3-3-0.7,4.9-0.3,1.9c0.3-1.6,0.5-3.2,0.8-4.7     c1.1-6,2.5-11.9,4.3-17.8c0.9-2.8,1.8-5.5,2.8-8.2c0.3-0.7,2.4-5.9,0.8-2.3c-1.5,3.6,0.9-2,1.3-2.8c2.5-5.4,5.3-10.6,8.5-15.7     c1.5-2.4,3.1-4.8,4.7-7.1c0.8-1.1,2.1-2.5,2.7-3.7c0.1-0.1-3,3.8-1.5,2c0.6-0.7,1.1-1.4,1.6-2c3.7-4.6,7.7-8.9,12-13     c2-2,4.1-3.9,6.3-5.7c1.2-1,2.3-2,3.5-2.9c0.5-0.4,1-0.8,1.5-1.2c2.1-1.7-4.7,3.4-0.9,0.7c4.8-3.4,9.7-6.7,14.9-9.7     c2.5-1.4,5-2.8,7.6-4c1.2-0.6,2.4-1.2,3.6-1.7c0.8-0.4,1.6-0.7,2.4-1.1c2.8-1.3-0.9,0.6-1.7,0.7c2.7-0.4,5.5-2.2,8.1-3     c3-1,6-1.9,9-2.7c5.9-1.6,11.9-2.6,18-3.7c-6.8,1.2-1.5,0.2,0.2,0.1c1.6-0.2,3.2-0.3,4.8-0.4c3.3-0.2,6.5-0.3,9.8-0.3     c4,0,8,0.2,12,0.5c1.8,0.1,3.6,0.4,5.5,0.5c2.7,0.3-1.4-0.2-1.5-0.2c1.1-0.2,3.3,0.5,4.5,0.7c7.9,1.4,15.6,3.5,23.2,6.2     c11.1,3.9,25.1-4.4,27.7-15.7c2.9-12.5-3.8-23.5-15.7-27.7c-60.3-21-128.9-5.2-174.7,38.9c-42.8,41.3-60.4,103.1-47.6,161     c12.6,56.9,55.4,103.1,109.7,123c56.5,20.6,120,7.6,166.2-29.8c47.9-38.8,69-102,58.9-162.1c-1.4-8.5-3.6-16.9-6.5-25     c-3.9-11.1-15.6-19.6-27.7-15.7C635,444.2,626.1,456.4,630.3,468.3L630.3,468.3z" style="" fill="#fff"></path></g></g><g style="" fill="#fff"><g style="" fill="#fff"><path d="M941.6,160c-20.6,20.6-41.2,41.2-61.7,61.7c-32.5,32.5-65.1,65.1-97.6,97.6c-7.5,7.5-15.1,15.1-22.6,22.6     c5.3-2.2,10.6-4.4,15.9-6.6c-31.7-0.2-63.4-0.5-95.1-0.7c-4.5,0-9-0.1-13.6-0.1c7.5,7.5,15,15,22.5,22.5     c-0.2-31.7-0.5-63.4-0.7-95.1c0-4.5-0.1-9-0.1-13.6c-2.2,5.3-4.4,10.6-6.6,15.9c20.6-20.6,41.2-41.2,61.7-61.7     c32.5-32.5,65.1-65.1,97.6-97.6c7.5-7.5,15.1-15.1,22.6-22.6c-12.8-5.3-25.6-10.6-38.4-15.9c0.2,31.7,0.5,63.4,0.7,95.1     c0,4.5,0.1,9,0.1,13.6c0.1,12.2,10.2,22.4,22.5,22.5c31.7,0.2,63.4,0.5,95.1,0.7c4.5,0,9,0.1,13.6,0.1     c11.8,0.1,23-10.4,22.5-22.5c-0.5-12.3-9.9-22.4-22.5-22.5c-31.7-0.2-63.4-0.5-95.1-0.7c-4.5,0-9-0.1-13.6-0.1     c7.5,7.5,15,15,22.5,22.5c-0.2-31.7-0.5-63.4-0.7-95.1c0-4.5-0.1-9-0.1-13.6c-0.1-19.4-24.6-29.8-38.4-15.9     c-11.6,11.6-23.2,23.2-34.8,34.8c-24,24-48,48-72,72c-20.7,20.7-41.4,41.4-62.2,62.2c-4.2,4.2-8.6,8.3-12.7,12.7     c-8.8,9.6-6.8,22.2-6.8,34.1c0.2,29.5,0.4,59.1,0.6,88.6c0,0.7,0,1.4,0,2.1c0.1,12.2,10.2,22.4,22.5,22.5     c26.6,0.2,53.2,0.4,79.9,0.6c9.5,0.1,19.2,0.5,28.7,0.2c11.2-0.4,17.1-7.7,24.1-14.8c19.2-19.2,38.4-38.4,57.6-57.6     c24.6-24.6,49.1-49.1,73.7-73.7c13.9-13.9,28.2-27.5,41.8-41.8c0.2-0.2,0.4-0.4,0.7-0.7c8.3-8.3,9-23.6,0-31.8     C964.4,151.8,950.5,151.1,941.6,160z" style="" fill="#fff"></path></g></g><g style="" fill="#fff"><g style="" fill="#fff"><path d="M529.4,526.4c17.2-17.2,34.5-34.5,51.7-51.7c27.6-27.6,55.2-55.2,82.8-82.8c6.3-6.3,12.6-12.6,18.9-18.9     c8.3-8.3,9-23.6,0-31.8c-9-8.2-22.9-8.9-31.8,0c-17.2,17.2-34.5,34.5-51.7,51.7c-27.6,27.6-55.2,55.2-82.8,82.8     c-6.3,6.3-12.6,12.6-18.9,18.9c-8.3,8.3-9,23.6,0,31.8C506.6,534.7,520.5,535.3,529.4,526.4L529.4,526.4z" style="" fill="#fff"></path></g></g></g></svg>