<svg xmlns="http://www.w3.org/2000/svg" xmlns:xlink="http://www.w3.org/1999/xlink" version="1.1" x="0px" y="0px" viewBox="0 0 52 52" enable-background="new 0 0 52 52" xml:space="preserve" style="max-width:100%" height="100%"><g style="" fill="#fff"><g style="" fill="#fff"><g style="" fill="#fff"><path d="M47,27H19c-1.6542969,0-3-1.3457031-3-3V8c0-1.6542969,1.3457031-3,3-3h28c1.6542969,0,3,1.3457031,3,3v16     C50,25.6542969,48.6542969,27,47,27z M19,7c-0.5512695,0-1,0.4482422-1,1v16c0,0.5517578,0.4487305,1,1,1h28     c0.5512695,0,1-0.4482422,1-1V8c0-0.5517578-0.4487305-1-1-1H19z" style="" fill="#fff"></path></g></g><g style="" fill="#fff"><g style="" fill="#fff"><path d="M33,20c-0.2109375,0-0.4223633-0.0664063-0.6000977-0.2001953l-12-9     c-0.4418945-0.3310547-0.53125-0.9580078-0.199707-1.3994141c0.3310547-0.4423828,0.9570313-0.5302734,1.3999023-0.2001953     L33,17.75l11.3999023-8.5498047c0.4433594-0.3300781,1.0698242-0.2421875,1.3999023,0.2001953     c0.331543,0.4414063,0.2421875,1.0683594-0.199707,1.3994141l-12,9C33.4223633,19.9335938,33.2109375,20,33,20z" style="" fill="#fff"></path></g></g><g style="" fill="#fff"><g style="" fill="#fff"><path d="M21.0009766,23c-0.3041992,0-0.6044922-0.1376953-0.8007813-0.4003906     c-0.331543-0.4414063-0.2421875-1.0683594,0.199707-1.3994141l8-6c0.4428711-0.3300781,1.0693359-0.2421875,1.3999023,0.2001953     c0.331543,0.4414063,0.2421875,1.0683594-0.199707,1.3994141l-8,6C21.4199219,22.9345703,21.2094727,23,21.0009766,23z" style="" fill="#fff"></path></g></g><g style="" fill="#fff"><g style="" fill="#fff"><path d="M44.9990234,23c-0.2084961,0-0.4189453-0.0654297-0.5991211-0.2001953l-8-6     c-0.4418945-0.3310547-0.53125-0.9580078-0.199707-1.3994141c0.3305664-0.4423828,0.9575195-0.5302734,1.3999023-0.2001953l8,6     c0.4418945,0.3310547,0.53125,0.9580078,0.199707,1.3994141C45.6035156,22.8623047,45.3032227,23,44.9990234,23z" style="" fill="#fff"></path></g></g><g style="" fill="#fff"><g style="" fill="#fff"><path d="M33,47H5c-1.6542969,0-3-1.3457031-3-3V28c0-1.6542969,1.3457031-3,3-3h28c1.6542969,0,3,1.3457031,3,3v16     C36,45.6542969,34.6542969,47,33,47z M5,27c-0.5512695,0-1,0.4482422-1,1v16c0,0.5517578,0.4487305,1,1,1h28     c0.5512695,0,1-0.4482422,1-1V28c0-0.5517578-0.4487305-1-1-1H5z" style="" fill="#fff"></path></g></g><g style="" fill="#fff"><g style="" fill="#fff"><path d="M19,40c-0.2109375,0-0.4223633-0.0664063-0.6000977-0.2001953l-12-9     c-0.4418945-0.3310547-0.53125-0.9580078-0.199707-1.3994141c0.3310547-0.4423828,0.9570313-0.5302734,1.3999023-0.2001953     L19,37.75l11.3999023-8.5498047c0.4433594-0.3300781,1.0698242-0.2421875,1.3999023,0.2001953     c0.331543,0.4414063,0.2421875,1.0683594-0.199707,1.3994141l-12,9C19.4223633,39.9335938,19.2109375,40,19,40z" style="" fill="#fff"></path></g></g><g style="" fill="#fff"><g style="" fill="#fff"><path d="M7.0009766,43c-0.3041992,0-0.6044922-0.1376953-0.8007813-0.4003906     c-0.331543-0.4414063-0.2421875-1.0683594,0.199707-1.3994141l8-6c0.4443359-0.3300781,1.0693359-0.2421875,1.3999023,0.2001953     c0.331543,0.4414063,0.2421875,1.0683594-0.199707,1.3994141l-8,6C7.4199219,42.9345703,7.2094727,43,7.0009766,43z" style="" fill="#fff"></path></g></g><g style="" fill="#fff"><g style="" fill="#fff"><path d="M30.9990234,43c-0.2084961,0-0.4189453-0.0654297-0.5991211-0.2001953l-8-6     c-0.4418945-0.3310547-0.53125-0.9580078-0.199707-1.3994141c0.3310547-0.4423828,0.9575195-0.5302734,1.3999023-0.2001953l8,6     c0.4418945,0.3310547,0.53125,0.9580078,0.199707,1.3994141C31.6035156,42.8623047,31.3032227,43,30.9990234,43z" style="" fill="#fff"></path></g></g><g style="" fill="#fff"><g style="" fill="#fff"><g style="" fill="#fff"><path d="M41,39h-6c-0.5522461,0-1-0.4472656-1-1s0.4477539-1,1-1h6c0.5522461,0,1,0.4472656,1,1S41.5522461,39,41,39z" style="" fill="#fff"></path></g></g><g style="" fill="#fff"><g style="" fill="#fff"><path d="M39,43h-4c-0.5522461,0-1-0.4472656-1-1s0.4477539-1,1-1h4c0.5522461,0,1,0.4472656,1,1S39.5522461,43,39,43z" style="" fill="#fff"></path></g></g></g><g style="" fill="#fff"><g style="" fill="#fff"><g style="" fill="#fff"><path d="M17,16h-6c-0.5522461,0-1-0.4472656-1-1s0.4477539-1,1-1h6c0.5522461,0,1,0.4472656,1,1S17.5522461,16,17,16z" style="" fill="#fff"></path></g></g><g style="" fill="#fff"><g style="" fill="#fff"><path d="M17,20h-4c-0.5522461,0-1-0.4472656-1-1s0.4477539-1,1-1h4c0.5522461,0,1,0.4472656,1,1S17.5522461,20,17,20z" style="" fill="#fff"></path></g></g></g></g></svg>