<svg xmlns="http://www.w3.org/2000/svg" xmlns:xlink="http://www.w3.org/1999/xlink" version="1.1" x="0px" y="0px" viewBox="0 0 52 52" enable-background="new 0 0 52 52" xml:space="preserve" style="max-width:100%" height="100%"><g style="" fill="#fff"><path fill="none" stroke="#fff" stroke-width="2" stroke-miterlimit="10" d="M17.8190918,7H12c-1.1046143,0-2,0.8955078-2,2v38   c0,1.1047363,0.8953857,2,2,2h28c1.1044922,0,2-0.8952637,2-2V9c0-1.1044922-0.8955078-2-2-2h-5.8404541" style=""></path><path fill="none" stroke="#fff" stroke-width="2" stroke-miterlimit="10" d="M33,5h-4.1485596   c-0.4158936,0-0.8220215-0.2375488-0.9534912-0.6320801C27.6334229,3.5731201,26.8835449,3,26,3   c-0.883667,0-1.6335449,0.5731201-1.8980713,1.3679199C23.9705811,4.7624512,23.5644531,5,23.1485596,5H19   c-0.5522461,0-1,0.4477539-1,1v3h16V6C34,5.4477539,33.5522461,5,33,5z" style=""></path><circle fill="none" stroke="#fff" stroke-width="2" stroke-miterlimit="10" cx="32.9999428" cy="19.0000916" r="3" style=""></circle><circle fill="none" stroke="#fff" stroke-width="2" stroke-miterlimit="10" cx="17.9999409" cy="16.0000916" r="3" style=""></circle><circle fill="none" stroke="#fff" stroke-width="2" stroke-miterlimit="10" cx="21.9999409" cy="42.0000916" r="3" style=""></circle><line fill="none" stroke="#fff" stroke-width="2" stroke-miterlimit="10" x1="18.9999409" y1="27.0001507" x2="12.9999704" y2="33.0001221" style=""></line><line fill="none" stroke="#fff" stroke-width="2" stroke-miterlimit="10" x1="18.9999409" y1="33.0001221" x2="12.9999704" y2="27.0001507" style=""></line><line fill="none" stroke="#fff" stroke-width="2" stroke-miterlimit="10" x1="37.9999275" y1="37.0001068" x2="31.9999561" y2="43.0000763" style=""></line><line fill="none" stroke="#fff" stroke-width="2" stroke-miterlimit="10" x1="37.9999275" y1="43.0000763" x2="31.9999561" y2="37.0001068" style=""></line><path fill="none" stroke="#fff" stroke-width="2" stroke-miterlimit="10" d="M21.9999409,39.0000916v-3   c0-1.6568527,1.3431454-3,3-3h7c1.6568546,0,3.0000019-1.3431454,3.0000019-3v-3" style=""></path><polyline fill="none" stroke="#fff" stroke-width="2" stroke-miterlimit="10" points="31.9999409,29.0000916    34.9999428,26.0000916 37.9999428,29.0000916  " style=""></polyline></g></svg>