<svg xmlns="http://www.w3.org/2000/svg" viewBox="0 0 512 512" style="max-width:100%" height="100%"><path d="M256 303.216c-53.744 0-97.468 43.724-97.468 97.468 0 30.532 14.115 57.825 36.159 75.71.417.398.869.761 1.354 1.084 16.547 12.947 37.365 20.674 59.955 20.674 22.59 0 43.408-7.727 59.955-20.674a9.882 9.882 0 0 0 1.354-1.084c22.043-17.885 36.159-45.178 36.159-75.71 0-53.745-43.724-97.468-97.468-97.468zm0 174.936c-15.809 0-30.522-4.77-42.791-12.933 6.576-16.892 23.632-28.603 42.791-28.603s36.215 11.711 42.791 28.603c-12.27 8.163-26.982 12.933-42.791 12.933zm-17.616-77.469c0-8.786 7.147-15.933 15.932-15.933s15.933 7.147 15.933 15.933-7.148 15.933-15.933 15.933-15.932-7.147-15.932-15.933zm76.061 50.762c-6.835-12.9-18.034-23.157-31.474-29.111a35.742 35.742 0 0 0 7.277-21.65c0-19.813-16.119-35.933-35.933-35.933-19.813 0-35.932 16.119-35.932 35.933 0 8.65 3.073 16.594 8.183 22.802-12.343 6.08-22.599 15.856-29.012 27.96-11.834-13.607-19.023-31.355-19.023-50.762 0-42.716 34.752-77.468 77.468-77.468s77.468 34.752 77.468 77.468c.001 19.406-7.188 37.154-19.022 50.761zM97.468 13.847C43.724 13.847 0 57.572 0 111.316c0 30.533 14.116 57.826 36.16 75.711.416.397.867.759 1.351 1.082 16.547 12.948 37.366 20.675 59.957 20.675s43.41-7.728 59.957-20.676a9.886 9.886 0 0 0 1.35-1.081c22.044-17.885 36.161-45.179 36.161-75.712 0-53.744-43.724-97.468-97.468-97.468zm0 174.938c-15.809-.001-30.521-4.771-42.791-12.933 6.576-16.892 23.632-28.603 42.791-28.603s36.215 11.711 42.791 28.603c-12.27 8.163-26.981 12.933-42.791 12.933zm-17.617-77.468c0-8.785 7.147-15.933 15.933-15.933s15.933 7.147 15.933 15.933-7.148 15.932-15.933 15.932-15.933-7.147-15.933-15.932zm76.062 50.76c-6.834-12.9-18.034-23.156-31.474-29.111a35.74 35.74 0 0 0 7.277-21.65c0-19.813-16.119-35.933-35.933-35.933S59.85 91.502 59.85 111.316c0 8.649 3.073 16.594 8.183 22.802-12.343 6.08-22.599 15.856-29.011 27.96C27.189 148.471 20 130.723 20 111.316 20 68.6 54.752 33.848 97.468 33.848s77.468 34.752 77.468 77.468c0 19.406-7.189 37.154-19.023 50.761zM414.532 13.848c-53.744 0-97.468 43.724-97.468 97.468 0 30.534 14.117 57.828 36.162 75.713.415.396.864.757 1.347 1.079 16.547 12.948 37.367 20.676 59.958 20.676s43.41-7.727 59.957-20.675a9.988 9.988 0 0 0 1.352-1.082c22.044-17.884 36.16-45.178 36.16-75.711 0-53.744-43.724-97.468-97.468-97.468zm0 174.937c-15.81-.001-30.522-4.771-42.791-12.933 6.576-16.892 23.631-28.603 42.791-28.603s36.215 11.711 42.791 28.603c-12.27 8.163-26.982 12.933-42.791 12.933zm-17.617-77.468c0-8.785 7.147-15.933 15.933-15.933s15.932 7.147 15.932 15.933-7.147 15.932-15.932 15.932-15.933-7.147-15.933-15.932zm76.062 50.76c-6.835-12.9-18.034-23.157-31.474-29.111a35.74 35.74 0 0 0 7.277-21.65c0-19.813-16.119-35.933-35.932-35.933s-35.933 16.119-35.933 35.933c0 8.649 3.073 16.594 8.183 22.801-12.344 6.08-22.599 15.856-29.012 27.96-11.833-13.606-19.023-31.354-19.023-50.761 0-42.716 34.752-77.468 77.468-77.468S492 68.6 492 111.316c0 19.406-7.189 37.154-19.023 50.761zM140.977 355.435l-.121-.104c-4.216-3.567-10.526-3.041-14.093 1.174-3.544 4.188-3.048 10.442 1.091 14.022l.121.104a9.96 9.96 0 0 0 6.455 2.366 9.977 9.977 0 0 0 7.639-3.541c3.542-4.187 3.047-10.442-1.092-14.021zM121.466 335.379l-.124-.149c-3.551-4.213-9.825-4.741-14.049-1.204-4.225 3.536-4.778 9.841-1.256 14.078l.016.02a9.978 9.978 0 0 0 7.712 3.628 9.959 9.959 0 0 0 6.367-2.294c4.256-3.52 4.854-9.823 1.334-14.079zM105.253 312.447a12.374 12.374 0 0 0-.115-.194c-2.854-4.729-9.013-6.27-13.741-3.416-4.729 2.854-6.261 8.98-3.408 13.708l.01.016a9.993 9.993 0 0 0 13.684 3.569c4.765-2.792 6.363-8.918 3.57-13.683zM84.514 260.303c-1.164-5.399-6.482-8.834-11.881-7.67-5.399 1.163-8.833 6.482-7.67 11.881l.046.207c1.055 4.641 5.18 7.793 9.747 7.793a10.1 10.1 0 0 0 2.221-.251c5.385-1.224 8.761-6.575 7.537-11.96zM92.804 287.183l-.057-.143c-2.065-5.12-7.885-7.593-13.006-5.532s-7.601 7.888-5.543 13.01l.017.042a10.004 10.004 0 0 0 9.298 6.314 9.982 9.982 0 0 0 3.686-.708c5.132-2.037 7.642-7.85 5.605-12.983zM385.238 356.506c-3.568-4.217-9.877-4.742-14.094-1.175a6.283 6.283 0 0 0-.119.102c-4.142 3.579-4.637 9.834-1.093 14.023a9.977 9.977 0 0 0 7.639 3.541 9.965 9.965 0 0 0 6.574-2.468c4.142-3.579 4.637-9.834 1.093-14.023zM432.267 281.505c-5.125-2.066-10.949.412-13.014 5.535l-.057.143c-2.033 5.124.481 10.88 5.599 12.927a9.894 9.894 0 0 0 3.682.711c3.976 0 7.75-2.396 9.325-6.302 2.065-5.122-.413-10.949-5.535-13.014zM404.749 334.031c-4.223-3.56-10.531-3.023-14.091 1.199l-.125.149c-3.507 4.242-2.896 10.483 1.329 14.011a9.919 9.919 0 0 0 6.38 2.309 10.06 10.06 0 0 0 7.706-3.577c3.56-4.223 3.024-10.532-1.199-14.091zM439.407 252.668c-5.374-1.186-10.704 2.227-11.913 7.598l-.005.021c-1.224 5.386 2.15 10.744 7.535 11.968.746.169 1.491.25 2.226.25 4.564 0 8.688-3.146 9.742-7.786l.046-.207c1.159-5.38-2.255-10.66-7.631-11.844zM420.591 308.857c-4.728-2.852-10.875-1.333-13.729 3.396l-.115.194c-2.793 4.765-1.202 10.903 3.563 13.696a9.965 9.965 0 0 0 5.056 1.378 9.973 9.973 0 0 0 8.621-4.936c2.853-4.728 1.332-10.874-3.396-13.728zM441.974 223.061c-5.524-.316-10.233 3.922-10.544 9.435l-.001.034c-.307 5.514 3.917 10.207 9.431 10.513.188.01.375.016.561.016 5.27 0 9.684-4.145 9.98-9.472.306-5.513-3.914-10.218-9.427-10.526zM318.223 31.92l-.095-.031c-5.257-1.7-10.893 1.186-12.59 6.441-1.699 5.255 1.185 10.892 6.441 12.59l.095.031a9.997 9.997 0 0 0 3.076.487c4.222 0 8.146-2.695 9.514-6.928 1.698-5.255-1.186-10.892-6.441-12.59zM287.492 24.702l-.264-.041c-5.468-.803-10.578 2.969-11.382 8.433-.802 5.464 2.943 10.539 8.407 11.343.548.09 1.094.134 1.632.134 4.81 0 9.051-3.48 9.855-8.381.895-5.45-2.798-10.593-8.248-11.488zM255.88 22.442l-.247.002c-5.522.082-9.957 4.624-9.875 10.146.08 5.473 4.518 9.853 9.972 9.853l.15-.001c5.523 0 10-4.477 10-10s-4.477-10-10-10zM206.094 38.637c-1.602-5.286-7.188-8.272-12.47-6.67l-.137.042c-5.279 1.624-8.213 7.211-6.589 12.49 1.322 4.296 5.295 7.053 9.575 7.053.977 0 1.97-.144 2.951-.445 5.286-1.602 8.272-7.185 6.67-12.47zM235.801 33.473c-.882-5.452-5.997-9.162-11.448-8.278l1.457 9.894-1.476-9.891c-5.462.815-9.229 5.904-8.415 11.367.741 4.962 5.008 8.525 9.878 8.525.491 0 .989-.036 1.489-.111l.219-.034c5.452-.882 9.178-6.02 8.296-11.472zM80.357 230.32c-1.164-5.399-6.482-8.834-11.881-7.67-5.399 1.163-8.833 6.482-7.67 11.881l.046.207c1.055 4.641 5.18 7.793 9.747 7.793.731 0 1.476-.082 2.221-.251 5.385-1.224 8.761-6.575 7.537-11.96z" style="" fill="#fff"></path></svg>