<svg xmlns:x="http://ns.adobe.com/Extensibility/1.0/" xmlns:i="http://ns.adobe.com/AdobeIllustrator/10.0/" xmlns:graph="http://ns.adobe.com/Graphs/1.0/" xmlns="http://www.w3.org/2000/svg" xmlns:xlink="http://www.w3.org/1999/xlink" version="1.1" x="0px" y="0px" viewBox="0 0 100 100" enable-background="new 0 0 100 100" xml:space="preserve" style="max-width:100%" height="100%"><metadata style="" fill="#fff"><sfw xmlns="http://ns.adobe.com/SaveForWeb/1.0/" style="" fill="#fff"><slices style="" fill="#fff"></slices><slicesourcebounds width="1449" height="1446.4" y="-1446.7" x="0.5" bottomleftorigin="true" style="" fill="#fff"></slicesourcebounds></sfw></metadata><path d="M62.2,40.9c1,1,1,2.6,0,3.5L47.5,59.1c-0.5,0.5-1.1,0.7-1.8,0.7c0,0,0,0,0,0c-0.7,0-1.3-0.3-1.8-0.7l-6.2-6.2  c-1-1-1-2.6,0-3.5c1-1,2.6-1,3.5,0l4.4,4.4l13-12.9C59.7,39.9,61.3,39.9,62.2,40.9z M50,94.4c-21.1,0-38.3-17.2-38.3-38.3V23  c0-1,0.6-1.9,1.5-2.3L49,5.8c0.6-0.3,1.3-0.3,1.9,0l35.8,14.9c0.9,0.4,1.5,1.3,1.5,2.3v33.1C88.3,77.2,71.1,94.4,50,94.4z   M83.3,56.1V24.7L50,10.8L16.7,24.7v31.4c0,18.3,14.9,33.3,33.3,33.3S83.3,74.5,83.3,56.1z" style="" fill="#fff" xmlns="http://www.w3.org/2000/svg"></path></svg>