<svg xmlns="http://www.w3.org/2000/svg" data-name="Layer 1" viewBox="0 0 100 100" x="0px" y="0px" style="max-width:100%" height="100%"><title style="" fill="#fff">Artboard 24</title><path d="M86.83,79.86a12.35,12.35,0,0,0-1-1.11l-.87-.8-1.7-1.56c-4.48-4.07-8.42-7.45-11.2-9.53-.06,0-.18,0-.32,0a34.71,34.71,0,0,0,4.94-6.7,32.86,32.86,0,0,0,3.73-9.72A32.7,32.7,0,0,0,79.85,34a1.43,1.43,0,0,0-2.67.64,32.64,32.64,0,0,1-.65,14.88,31.71,31.71,0,0,1-10.31,16,31.2,31.2,0,0,1-20.41,7.1,30.67,30.67,0,0,1-30-30,30.88,30.88,0,0,1,7.11-20.42,31.83,31.83,0,0,1,16-10.34,33.42,33.42,0,0,1,14.9-.61A1.29,1.29,0,0,0,55.09,10a1.19,1.19,0,0,0-.69-1.45A33.26,33.26,0,0,0,38,8,34.87,34.87,0,0,0,19.28,19,35.54,35.54,0,0,0,32.39,75.17,35.17,35.17,0,0,0,45.73,77.9a36.09,36.09,0,0,0,12.94-2.34c.6-.23,1.19-.48,1.78-.74,0,0,0,.06,0,.08,1,3.34,2.74,8.22,5,13.84l.86,2.14L66.71,92a12.32,12.32,0,0,0,.67,1.36,11.72,11.72,0,0,0,4.44,4.39A11.9,11.9,0,0,0,89.38,85.56,11.74,11.74,0,0,0,86.83,79.86ZM81.26,92.6a6.72,6.72,0,0,1-3.4,1.18,7,7,0,0,1-3.51-.73,6.84,6.84,0,0,1-2.61-2.34,7.65,7.65,0,0,1-.44-.76l-.51-1.06-1-2.08c-2.66-5.43-5.08-10-6.9-13a.26.26,0,0,0-.18-.1,35.65,35.65,0,0,0,6.66-4.58c.27-.23.53-.47.79-.71-.07.18-.1.33,0,.4,2.14,2.74,5.59,6.61,9.75,11l1.59,1.67.82.85a7.68,7.68,0,0,1,.56.67,6.84,6.84,0,0,1,1.28,3.26A6.74,6.74,0,0,1,81.26,92.6Z" style="" fill="#fff"></path><path d="M45.45,41a3.73,3.73,0,0,0,.91,1.12,3.08,3.08,0,0,0,1,.77c4.45-2,13.78-11.13,16.81-16.25,3.26.61,6,1,8,1.15.25,0,.27-.58,0-1.32a2.67,2.67,0,0,0-.71-1.34c-1.64-.7-3.57-1.48-5.76-2.24-.35-1.83-.76-3.81-1.21-5.9,2.72-2.56,5.6-5.33,8.51-8.2.32,1.23.64,2.45,1,3.64l0,.08a2.62,2.62,0,0,0,1.92,1.86l4.25,1c-3.33,3.72-6.08,7.08-8,9.62a2.75,2.75,0,0,0,.11,1.67c.19.64.46,1,.63.9A180.66,180.66,0,0,0,86.62,15.69a2.47,2.47,0,0,0,.67-1.1,2.44,2.44,0,0,0-1.67-3l-.15,0c-2.11-.61-4.33-1.23-6.69-1.86Q78,6.3,77.12,2.84a2.79,2.79,0,0,0-.72-1.27,2.75,2.75,0,0,0-3.89,0C68.13,5.94,63.8,10.41,60,14.45l-.11.12a2.33,2.33,0,0,0-.54,2.24c.78,2.7,1.53,5.22,2.24,7.48C56.48,27.37,47.42,36.62,45.45,41Z" style="" fill="#fff"></path><path d="M38.33,30.33a17,17,0,0,1,3.58-2,16.29,16.29,0,0,1,3.55-.92,14.72,14.72,0,0,1,3.13-.19c.26,0,.58-.59.7-1.34h0c.11-.67,0-1.23-.29-1.3a13.91,13.91,0,0,0-3.74-.5,17.07,17.07,0,0,0-4.55.53,19,19,0,0,0-4.86,2.09,18.85,18.85,0,0,0-4.42,3.9,18.39,18.39,0,0,0-4.18,12.24A18.75,18.75,0,0,0,45.53,61.12,18.4,18.4,0,0,0,57.78,57a17.77,17.77,0,0,0,6-9.28,17.09,17.09,0,0,0,.54-4.55,14,14,0,0,0-.49-3.74c-.08-.31-.78-.42-1.53-.26s-1.18.44-1.18.68a14.7,14.7,0,0,1-.18,3.13A16.21,16.21,0,0,1,60,46.48a16.88,16.88,0,0,1-2,3.57,15.49,15.49,0,0,1-3.19,3.1,14.08,14.08,0,0,1-9.1,2.65A13.91,13.91,0,0,1,32.58,42.64a14.1,14.1,0,0,1,2.65-9.11A15.58,15.58,0,0,1,38.33,30.33Z" style="" fill="#fff"></path></svg>