<svg xmlns="http://www.w3.org/2000/svg" xmlns:xlink="http://www.w3.org/1999/xlink" version="1.1" x="0px" y="0px" viewBox="0 0 52 52" enable-background="new 0 0 52 52" xml:space="preserve" style="max-width:100%" height="100%"><g style="" fill="#fff"><g style="" fill="#fff"><path d="M19.9959469,37.9914551c-4.6103516,0-9.2197266-1.7548828-12.7285156-5.2636719    c-7.0175781-7.0185547-7.0175781-18.4375,0-25.4555664c3.3994136-3.3999023,7.9199214-5.2724609,12.7285156-5.2724609    c4.8076172,0,9.328125,1.8725586,12.7275257,5.2724609c7.0185699,7.0180664,7.0185699,18.4375,0,25.4555664    C29.2146969,36.2365723,24.6053219,37.9914551,19.9959469,37.9914551z M19.9959469,3.9997559    c-4.2744141,0-8.2919922,1.6645508-11.3144531,4.6865234c-6.2382813,6.2382813-6.2382813,16.3886719,0,22.6274414    c6.2402344,6.2402344,16.3896484,6.2363281,22.6279297,0c6.2382832-6.2382813,6.2382832-16.3891602,0-22.6274414l0,0    C28.2869625,5.6643066,24.2693844,3.9997559,19.9959469,3.9997559z" style="" fill="#fff"></path></g><g style="" fill="#fff"><path d="M19.9959469,29.9953613c-2.5615234,0-5.1220703-0.9746094-7.0712891-2.9243164    c-3.8994141-3.8989258-3.8994141-10.2431641,0-14.1420898c3.8974609-3.8984375,10.2421875-3.8994141,14.1416016,0    c3.8994141,3.8989258,3.8994141,10.2431641,0,14.1420898C25.1170406,29.020752,22.5564938,29.9953613,19.9959469,29.9953613z     M19.9959469,12.0036621c-2.0488281,0-4.0976563,0.7797852-5.6572266,2.3393555    c-3.1191406,3.1191406-3.1191406,8.1948242,0,11.3139648s8.1943359,3.1196289,11.3134766,0    c3.1191406-3.1191406,3.1191406-8.1948242,0-11.3139648C24.0926266,12.7834473,22.0437984,12.0036621,19.9959469,12.0036621z" style="" fill="#fff"></path></g><g style="" fill="#fff"><path d="M19.9949703,25.9968262c-1.5361328,0-3.0722656-0.5849609-4.2421875-1.7543945    c-2.3388672-2.3393555-2.3388672-6.1455078,0-8.4848633c2.3388672-2.3388672,6.1445313-2.3398438,8.4853516,0l0,0    c2.3388672,2.3393555,2.3388672,6.1455078,0,8.4848633C23.0682125,25.4118652,21.5320797,25.9968262,19.9949703,25.9968262z     M19.9949703,16.0021973c-1.0234375,0-2.0478516,0.3901367-2.828125,1.1694336    c-1.5585938,1.5595703-1.5585938,4.097168,0,5.6567383c1.5625,1.5595703,4.0986328,1.5576172,5.6572266,0    c1.5585938-1.5595703,1.5585938-4.097168,0-5.6567383l0,0C22.0437984,16.392334,21.0193844,16.0021973,19.9949703,16.0021973z" style="" fill="#fff"></path></g><g style="" fill="#fff"><path d="M34.7479019,38.9953613L29.09165,33.3381348l4.2421894-4.2421875l5.6572266,5.65625L34.7479019,38.9953613z     M31.919775,33.3381348l2.8281269,2.8291016l1.4150391-1.4150391l-2.8291016-2.828125L31.919775,33.3381348z" style="" fill="#fff"></path></g><g style="" fill="#fff"><path d="M43.1287613,50.0002441c-0.0625,0-0.1240234-0.0019531-0.1865234-0.0058594    c-0.8583984-0.0537109-1.6542969-0.4736328-2.1816406-1.1523438L32.718605,38.1965332l5.4736328-5.4736328l10.6337891,8.0332031    c0.6904297,0.5361328,1.1103516,1.3320313,1.1640625,2.1904297c0.0527344,0.8583984-0.2646484,1.6992188-0.8730469,2.3076172    l-3.8671875,3.8671875C44.6863785,49.685791,43.92173,50.0002441,43.1287613,50.0002441z M35.3631363,38.380127    l6.984375,9.2451172c0.1699219,0.2177734,0.4287109,0.3544922,0.71875,0.3730469    c0.2998047,0.0126953,0.5634766-0.0859375,0.7695313-0.2910156l3.8671875-3.8671875    c0.2050781-0.2060547,0.3085938-0.4785156,0.2910156-0.7695313c-0.0185547-0.2900391-0.1552734-0.5488281-0.3847656-0.7275391    l-9.2333984-6.9755859L35.3631363,38.380127z" style="" fill="#fff"></path></g><g style="" fill="#fff"><rect x="18.8934078" y="6.9997559" width="2" height="4" style="" fill="#fff"></rect></g><g style="" fill="#fff"><rect x="18.8934078" y="28.9997559" width="2" height="4.0004883" style="" fill="#fff"></rect></g><g style="" fill="#fff"><rect x="28.8934078" y="18.9997559" width="4" height="2" style="" fill="#fff"></rect></g><g style="" fill="#fff"><rect x="6.8934083" y="18.9997559" width="4" height="2" style="" fill="#fff"></rect></g></g></svg>