<svg xmlns="http://www.w3.org/2000/svg" data-name="Layer 1" viewBox="0 0 100 100" x="0px" y="0px" style="max-width:100%" height="100%"><title style="" fill="#fff">Artboard 17</title><path d="M81.07,64.53a2.5,2.5,0,0,0-3.54,0l-2.79,2.79-7.47-7.47a33,33,0,0,0,5.31-34.42l9.66-9.66v4.6a2.5,2.5,0,0,0,5,0V9.73a2.5,2.5,0,0,0-2.5-2.5H74.11a2.5,2.5,0,0,0,0,5h4.6l-8.55,8.55A33,33,0,0,0,12.36,52.27L2.23,62.4a2.5,2.5,0,1,0,3.54,3.54l9.15-9.15a33,33,0,0,0,4,4.9h0a33,33,0,0,0,44.79,1.69l7.47,7.47-2.79,2.79a2.5,2.5,0,0,0,0,3.54L83.24,92a8.93,8.93,0,0,0,12.62,0l0,0a8.93,8.93,0,0,0,0-12.62ZM62,58.15a28,28,0,0,1-39.56,0h0a28,28,0,1,1,39.56,0ZM92.36,88.43l0,0a3.93,3.93,0,0,1-5.55,0l-13-13,5.58-5.58,13.05,13A3.93,3.93,0,0,1,92.36,88.43ZM62.69,35.31,51.14,46.87a2.5,2.5,0,0,1-3.54,0L41,40.29l-4.81-4.81-9.79,9.79a2.5,2.5,0,0,1-3.54-3.54L34.45,30.18a2.5,2.5,0,0,1,3.54,0l6.58,6.58,4.81,4.81,9.79-9.79a2.5,2.5,0,0,1,3.54,3.54Z" style="" fill="#fff"></path></svg>