<svg xmlns="http://www.w3.org/2000/svg" data-name="Layer 1" viewBox="0 0 100 100" x="0px" y="0px" style="max-width:100%" height="100%"><title style="" fill="#fff">Artboard 11</title><path d="M89.94,54.39A4.11,4.11,0,0,0,87,53.18h0l-32.69.07a28.2,28.2,0,0,0-25.51-16h-.06a28.13,28.13,0,0,0-20,8.33A28.44,28.44,0,0,0,1.58,73.47,27.64,27.64,0,0,0,21,92.78a30,30,0,0,0,7.85,1.06A28.33,28.33,0,0,0,54.37,77.69h3.81A2.5,2.5,0,0,0,59.93,77l4.53-4.43,2.71,2.7a5,5,0,0,0,3.54,1.46h0a5,5,0,0,0,3.54-1.48l2.69-2.7L81.48,77a2.5,2.5,0,0,0,1.75.71h4.51a2.51,2.51,0,0,0,1.77-.74l8.95-9a3.61,3.61,0,0,0,0-5.1Zm-3.25,18.3H84.25l-5-4.94a3.21,3.21,0,0,0-2.28-.94h0a3.2,3.2,0,0,0-2.28,1L70.69,71.7l-3.94-3.93a3.21,3.21,0,0,0-2.28-.94h0a3.21,3.21,0,0,0-2.27.94l-5,4.93H52.74a2.5,2.5,0,0,0-2.32,1.56A23.4,23.4,0,0,1,22.26,88,22.62,22.62,0,0,1,6.41,72.15a23.5,23.5,0,0,1,5.89-23.07,23.16,23.16,0,0,1,16.47-6.86h.05a23.23,23.23,0,0,1,21.57,14.5,2.5,2.5,0,0,0,2.31,1.55h0l34-.08,7.26,7.24Z" style="" fill="#fff"></path><path d="M28.81,62.51h0a3,3,0,1,0,3,3A3,3,0,0,0,28.8,62.51Z" style="" fill="#fff"></path><path d="M45.35,63H41.67A13.13,13.13,0,0,0,31.31,52.65V49a2.5,2.5,0,0,0-5,0v3.68A13.13,13.13,0,0,0,16,63H12.27a2.5,2.5,0,1,0,0,5H16A13.13,13.13,0,0,0,26.31,78.37v3.68a2.5,2.5,0,0,0,5,0V78.37A13.13,13.13,0,0,0,41.67,68h3.68a2.5,2.5,0,0,0,0-5ZM28.81,73.61a8.1,8.1,0,1,1,8.1-8.1A8.11,8.11,0,0,1,28.81,73.61Z" style="" fill="#fff"></path><path d="M61.62,46H83.9a6.42,6.42,0,0,0,6.42-6.42V27.76a6.42,6.42,0,0,0-6.42-6.42h-.47V16.83a10.67,10.67,0,1,0-21.34,0v4.52h-.47a6.42,6.42,0,0,0-6.42,6.42V39.59A6.42,6.42,0,0,0,61.62,46Zm5.47-29.18a5.67,5.67,0,1,1,11.34,0v4.52H67.09ZM60.2,27.76a1.42,1.42,0,0,1,1.42-1.42H83.9a1.42,1.42,0,0,1,1.42,1.42V39.59A1.42,1.42,0,0,1,83.9,41H61.62a1.42,1.42,0,0,1-1.42-1.42Z" style="" fill="#fff"></path><path d="M72.75,36.18h0a2.5,2.5,0,1,0-2.51-2.5A2.49,2.49,0,0,0,72.77,36.18Z" style="" fill="#fff"></path></svg>