<svg xmlns="http://www.w3.org/2000/svg" xmlns:xlink="http://www.w3.org/1999/xlink" version="1.1" x="0px" y="0px" viewBox="0 0 64 64" enable-background="new 0 0 64 64" xml:space="preserve" style="max-width:100%" height="100%"><g style="" fill="#fff"><g style="" fill="#fff"><g style="" fill="#fff"><path fill="#fff" d="M23.5,18.5c-0.2-0.2-0.5-0.4-1-0.4c-1.7,0-4.4,0-6.1,0c-0.4,0-0.8,0.1-1,0.4c-0.3,0.3-0.4,0.6-0.4,1.1     c0,3.6,0,8.3,0,12.4v3.6c0,0.9,0.5,1.4,1.4,1.4h6c1,0,1.5-0.5,1.5-1.5l0-9.6c0-2.2,0-4.7,0-6.4C23.9,19.1,23.8,18.7,23.5,18.5z      M17.5,34.4V20.6h3.8v13.8H17.5z" style=""></path><path fill="#fff" d="M49,26.4c0-0.4-0.1-0.8-0.4-1.1c-0.2-0.2-0.5-0.4-1-0.4c-1.7,0-4.4,0-6.1,0c-0.4,0-0.8,0.1-1,0.4     c-0.3,0.3-0.4,0.6-0.4,1.1c0,3.5,0,3.8,0,6.1v3c0,0.9,0.5,1.4,1.4,1.4h6c1,0,1.5-0.5,1.5-1.5l0-7.4c0-0.3,0-0.3,0-1.4L49,26.4z      M42.7,34.4v-7h3.8v7H42.7z" style=""></path><path fill="#fff" d="M35.9,13.6c-0.2-0.2-0.5-0.4-1-0.4c-1.7,0-4.4,0-6.1,0c-0.4,0-0.8,0.1-1,0.4c-0.3,0.3-0.4,0.6-0.4,1.1     c0,3.7,0,11.6,0,17.1v3.9c0,0.9,0.5,1.4,1.4,1.4h6c1,0,1.5-0.5,1.5-1.5l0-10.6c0-3.7,0-8.6,0-10.3C36.3,14.2,36.2,13.8,35.9,13.6     z M29.9,34.4V15.7h3.8v18.7H29.9z" style=""></path></g></g><path fill="#fff" d="M32,47.8c-0.7,0-1.3-0.6-1.3-1.4c0-0.7,0.6-1.3,1.3-1.3c0.7,0,1.3,0.6,1.3,1.4C33.3,47.2,32.7,47.8,32,47.8   z" style=""></path><path fill="#fff" d="M56.7,5.8h-1.1h-0.2H7.3c-3.2,0-5.8,2.6-5.8,5.8v35.1c0,3.2,2.6,5.8,5.8,5.8h49.3c3.2,0,5.8-2.6,5.8-5.8   V11.6C62.5,8.4,59.9,5.8,56.7,5.8z M60.1,46.7c0,1.9-1.5,3.4-3.4,3.4H7.3c-1.9,0-3.4-1.5-3.4-3.4v-4.6h56.2V46.7z M60.1,39.7H3.9   V11.6c0-1.9,1.5-3.4,3.4-3.4h48.1h0.2h1.1c1.9,0,3.4,1.5,3.4,3.4V39.7z" style=""></path><rect x="21.8" y="55.9" fill="#fff" width="20.4" height="2.4" style=""></rect></g></svg>