

<svg xmlns="http://www.w3.org/2000/svg" xmlns:xlink="http://www.w3.org/1999/xlink" version="1.1" viewBox="0 0 96 96" x="0px" y="0px" style="max-width:100%" height="100%"><path d="M44.328 79.384c-1.188 0-2.348-0.252-3.444-0.732l-5.976-2.644c-8.844-3.916-9.616-20.908-1.76-38.688 6.648-15.040 17.288-25.544 25.884-25.544 1.384 0 2.704 0.26 3.908 0.796l5.976 2.644c2.084 0.92 3.688 2.6 4.508 4.724 0.828 2.128 0.768 4.444-0.148 6.536l-1.756 3.988c-1.848 4.18-7.048 6.208-11.252 4.36l-5.976-2.64c-1.524-0.68-6.104 2.584-9.5 10.276-1.516 3.428-2.408 7.020-2.436 9.848-0.028 2.448 0.596 3.824 1.228 4.096l5.976 2.636c4.304 1.916 6.256 6.956 4.356 11.256l-1.756 3.98c-1.388 3.108-4.452 5.108-7.832 5.108zM59.028 15.776c-6.832 0-16.388 9.952-22.224 23.16-7.416 16.776-6.132 30.824-0.284 33.412l5.976 2.644c2.244 0.992 5-0.092 5.98-2.316l1.756-3.984c1.008-2.284-0.028-4.964-2.32-5.984l-5.972-2.636c-2.376-1.048-3.66-3.82-3.612-7.804 0.040-3.404 1.024-7.452 2.776-11.416 2.804-6.344 7.832-12.748 12.74-12.748 0.724 0 1.412 0.144 2.044 0.424l5.972 2.64c2.248 1 5-0.092 5.98-2.316l1.76-3.992c0.492-1.108 0.524-2.34 0.084-3.468-0.428-1.132-1.28-2.020-2.396-2.508l-5.976-2.64c-0.688-0.316-1.46-0.468-2.284-0.468z" fill="#fff" style=""></path><path d="M47.996 96c-7.668 0-12.38-1.676-14.404-5.116-2.808-4.788 0.636-10.944 3.148-15.444l0.364-0.648c0.536-0.964 1.752-1.32 2.72-0.772 0.968 0.54 1.316 1.752 0.776 2.72l-0.368 0.664c-1.924 3.444-4.836 8.656-3.188 11.464 1.208 2.048 4.996 3.132 10.952 3.132 24.26 0 44-19.744 44-44s-19.74-44-44-44c-24.26 0-44 19.744-44 44 0 12.668 5.464 24.736 14.996 33.084 0.832 0.736 0.912 1.992 0.184 2.828-0.732 0.828-1.996 0.912-2.824 0.18-10.392-9.12-16.352-22.276-16.352-36.092 0-26.464 21.532-48 48-48s48 21.536 48 48c-0.004 26.468-21.536 48-48.004 48z" fill="#fff" style=""></path></svg>