<svg xmlns="http://www.w3.org/2000/svg" xmlns:xlink="http://www.w3.org/1999/xlink" version="1.1" x="0px" y="0px" viewBox="0 0 100 100" enable-background="new 0 0 100 100" xml:space="preserve" style="max-width:100%" height="100%"><g style="" fill="#fff"><path d="M81.817,18.177C73.318,9.675,62.019,5,50,5C37.979,5,26.68,9.675,18.18,18.177c-17.544,17.544-17.544,46.096,0,63.64   C26.68,90.319,37.979,95,50,95c12.019,0,23.318-4.681,31.817-13.183C99.364,64.273,99.364,35.721,81.817,18.177z M77.528,77.527   C70.175,84.88,60.399,88.933,50,88.933c-10.401,0-20.177-4.053-27.53-11.406c-15.177-15.18-15.177-39.881,0-55.061   c7.353-7.353,17.129-11.4,27.53-11.4c10.398,0,20.174,4.047,27.527,11.4C92.707,37.646,92.707,62.348,77.528,77.527z" style="" fill="#fff"></path><path d="M70.693,34.323c-0.05,0.006-0.681,0.083-0.729,0.089c-4.42,0-8.099-3.478-8.378-7.916c-0.101-1.6-1.425-2.844-3.028-2.844   H40.443c-1.603,0-2.927,1.244-3.028,2.844c-0.278,4.438-3.958,7.916-8.375,7.916c-0.806,0-1.576,0.32-2.145,0.889   c-0.572,0.569-0.889,1.345-0.889,2.151c0.004,3.484,0.538,16.679,7.6,28.399c0.028,0.066,0.071,0.122,0.104,0.186   c3.322,5.454,8.063,10.575,14.852,14.229c0.447,0.243,0.942,0.361,1.437,0.361s0.989-0.118,1.437-0.361   C72.96,68.675,74.002,42.475,73.993,37.338c-0.003-0.847-0.358-1.659-0.987-2.234C72.379,34.53,71.546,34.269,70.693,34.323z    M37.084,59.426c-3.575-7.4-4.657-15.012-4.921-19.291c5.241-1.167,9.45-5.202,10.846-10.416h12.985   c0.585,2.189,1.775,4.073,3.219,5.721L37.084,59.426z M50,74.103c-4.144-2.51-7.252-5.739-9.705-9.21l23.742-25.734   c1.193,0.543,2.454,0.96,3.788,1.16C67.34,47.944,64.588,65.269,50,74.103z" style="" fill="#fff"></path></g></svg>