<svg xmlns="http://www.w3.org/2000/svg" xmlns:xlink="http://www.w3.org/1999/xlink" version="1.1" x="0px" y="0px" viewBox="0 0 64 64" style="enable-background:new 0 0 64 64;max-width:100%" xml:space="preserve" height="100%"><rect x="56" y="56" width="2" height="2" style="" fill="#fff"></rect><rect x="52" y="56" width="2" height="2" style="" fill="#fff"></rect><rect x="48" y="56" width="2" height="2" style="" fill="#fff"></rect><rect x="56" y="48" width="2" height="2" style="" fill="#fff"></rect><rect x="52" y="48" width="2" height="2" style="" fill="#fff"></rect><rect x="48" y="48" width="2" height="2" style="" fill="#fff"></rect><rect x="56" y="40" width="2" height="2" style="" fill="#fff"></rect><rect x="52" y="40" width="2" height="2" style="" fill="#fff"></rect><rect x="48" y="40" width="2" height="2" style="" fill="#fff"></rect><path d="M44,26h4h4h4h3v-2h-2V11c0-0.552-0.447-1-1-1h-3V7c0-0.552-0.447-1-1-1h-4c-0.553,0-1,0.448-1,1v3h-3c-0.553,0-1,0.448-1,1  v3h-3c-0.553,0-1,0.448-1,1v9h-2v2h3H44z M55,12v12h-2V12H55z M49,8h2v3v13h-2V11V8z M45,12h2v12h-2v-9V12z M41,16h2v8h-2V16z" style="" fill="#fff"></path><path d="M6.285,57.489c0.021,0.022,0.045,0.04,0.066,0.061c0.173,0.174,0.359,0.334,0.54,0.5c0.186,0.171,0.368,0.349,0.561,0.51  c0.07,0.058,0.147,0.109,0.219,0.166c2.231,1.784,4.887,2.887,7.728,3.186c0.024,0.003,0.048,0.008,0.072,0.011  C15.976,61.973,16.486,62,17,62s1.024-0.027,1.529-0.077c0.024-0.003,0.048-0.008,0.072-0.011c2.841-0.3,5.497-1.402,7.728-3.186  c0.072-0.057,0.148-0.107,0.219-0.166c0.193-0.161,0.375-0.339,0.561-0.51c0.181-0.166,0.367-0.326,0.54-0.5  c0.021-0.021,0.045-0.039,0.066-0.061c0.012-0.012,0.016-0.029,0.027-0.041c2.411-2.479,3.964-5.785,4.207-9.448H38v5v8  c0,0.552,0.447,1,1,1h22c0.553,0,1-0.448,1-1v-8v-8v-8c0-0.552-0.447-1-1-1H39c-0.553,0-1,0.448-1,1v8v1h-6.051  c-0.225-3.383-1.569-6.457-3.674-8.861l7.432-7.432l-0.026-0.026C36.081,29.879,36.525,30,37,30h22c1.654,0,3-1.346,3-3V5  c0-1.654-1.346-3-3-3H37c-1.654,0-3,1.346-3,3v22c0,0.475,0.121,0.919,0.319,1.319l-0.026-0.026l-7.432,7.432  c-2.404-2.105-5.478-3.45-8.861-3.674v-6.101C23.598,25.442,28,20.728,28,15c0-2.673-0.961-5.125-2.552-7.034L27.414,6H31V4h-3V1h-2  v3.586l-1.966,1.966C22.125,4.961,19.673,4,17,4C10.935,4,6,8.935,6,15c0,5.728,4.402,10.442,10,10.949v6.101  C8.195,32.569,2,39.067,2,47c0,4.061,1.628,7.744,4.258,10.448C6.269,57.46,6.273,57.477,6.285,57.489z M40,46h20v6H40V46z M60,60  H40v-6h20V60z M40,38h20v6H40V38z M36,5c0-0.551,0.448-1,1-1h22c0.552,0,1,0.449,1,1v22c0,0.551-0.448,1-1,1H37  c-0.552,0-1-0.449-1-1V5z M14,42c0-2.206,1.346-4,3-4s3,1.794,3,4s-1.346,4-3,4S14,44.206,14,42z M21,48c2.757,0,5,2.243,5,5v3.359  c-0.128,0.123-0.262,0.241-0.395,0.359c-0.143,0.127-0.285,0.258-0.433,0.378c-0.206,0.167-0.42,0.322-0.636,0.476  c-0.115,0.083-0.228,0.169-0.345,0.248c-0.258,0.172-0.526,0.33-0.796,0.484c-0.086,0.049-0.169,0.102-0.256,0.149  c-0.297,0.16-0.604,0.304-0.914,0.441c-0.071,0.031-0.139,0.067-0.21,0.097c-0.316,0.133-0.641,0.248-0.969,0.355  c-0.074,0.024-0.147,0.054-0.222,0.077c-0.32,0.099-0.647,0.178-0.977,0.252c-0.089,0.02-0.176,0.047-0.266,0.065  c-0.323,0.065-0.653,0.11-0.984,0.151c-0.099,0.012-0.196,0.033-0.296,0.043C17.873,59.977,17.439,60,17,60  s-0.873-0.023-1.301-0.066c-0.1-0.01-0.197-0.031-0.296-0.043c-0.331-0.041-0.661-0.085-0.984-0.151  c-0.09-0.018-0.177-0.045-0.266-0.065c-0.33-0.074-0.657-0.153-0.977-0.252c-0.075-0.023-0.147-0.053-0.222-0.077  c-0.328-0.108-0.653-0.223-0.969-0.355c-0.071-0.03-0.14-0.066-0.21-0.097c-0.31-0.137-0.617-0.281-0.914-0.441  c-0.087-0.047-0.17-0.1-0.256-0.149c-0.271-0.154-0.538-0.312-0.796-0.484c-0.117-0.079-0.23-0.165-0.345-0.248  c-0.216-0.154-0.431-0.309-0.636-0.476c-0.148-0.12-0.289-0.251-0.433-0.378C8.262,56.6,8.128,56.482,8,56.359V53  c0-2.757,2.243-5,5-5H21z M8,15c0-4.962,4.037-9,9-9c2.122,0,4.071,0.742,5.611,1.975l-1.427,1.427C20.015,8.526,18.57,8,17,8  c-3.859,0-7,3.14-7,7s3.141,7,7,7s7-3.14,7-7c0-1.57-0.526-3.015-1.402-4.184l1.427-1.427C25.258,10.929,26,12.878,26,15  c0,4.962-4.037,9-9,9S8,19.962,8,15z M22,15c0,2.757-2.243,5-5,5s-5-2.243-5-5s2.243-5,5-5c1.017,0,1.962,0.309,2.753,0.833  L17,13.586V12h-2v4c0,0.552,0.447,1,1,1h4v-2h-1.586l2.753-2.753C21.691,13.038,22,13.983,22,15z M17,34c7.168,0,13,5.832,13,13  c0,2.535-0.74,4.895-2,6.896V53c0-3.86-3.141-7-7-7h-0.284C21.511,44.937,22,43.538,22,42c0-3.309-2.243-6-5-6s-5,2.691-5,6  c0,1.538,0.489,2.937,1.284,4H13c-3.859,0-7,3.14-7,7v0.896C4.74,51.895,4,49.535,4,47C4,39.832,9.832,34,17,34z" style="" fill="#fff"></path></svg>