<svg xmlns="http://www.w3.org/2000/svg" xmlns:xlink="http://www.w3.org/1999/xlink" version="1.1" x="0px" y="0px" viewBox="0 0 64 64" style="enable-background:new 0 0 64 64;max-width:100%" xml:space="preserve" height="100%"><style type="text/css" style="" fill="#fff">
	.st0{display:none;}
	.st1{display:inline;}
	.st2{fill:none;stroke:#B3B3B3;stroke-width:0.1;stroke-miterlimit:10;}
</style><g class="st0" style="" fill="#fff"><g class="st1" style="" fill="#fff"><rect x="2" y="2" class="st2" width="60" height="60" style="" fill="#fff"></rect><line class="st2" x1="32" y1="2" x2="32" y2="62" style="" fill="#fff"></line><line class="st2" x1="62" y1="32" x2="2" y2="32" style="" fill="#fff"></line><line class="st2" x1="2" y1="2" x2="62" y2="62" style="" fill="#fff"></line><rect x="10" y="10" class="st2" width="44" height="44" style="" fill="#fff"></rect><line class="st2" x1="62" y1="2" x2="2" y2="62" style="" fill="#fff"></line><line class="st2" x1="2" y1="32" x2="32" y2="2" style="" fill="#fff"></line><line class="st2" x1="32" y1="2" x2="62" y2="32" style="" fill="#fff"></line><line class="st2" x1="62" y1="32" x2="32" y2="62" style="" fill="#fff"></line><line class="st2" x1="32" y1="62" x2="2" y2="32" style="" fill="#fff"></line><circle class="st2" cx="32" cy="32" r="21" style="" fill="#fff"></circle></g></g><path d="M14,26C7.4,26,2,20.6,2,14S7.4,2,14,2s12,5.4,12,12S20.6,26,14,26z M14,4C8.5,4,4,8.5,4,14s4.5,10,10,10s10-4.5,10-10  S19.5,4,14,4z" style="" fill="#fff"></path><path d="M10,9c0-0.6,0.4-1,1-1h2V6h-2C9.3,6,8,7.3,8,9v3.2C8,12.4,8,13,7.6,13S6,13,6,13v2c0,0,1.2,0,1.6,0S8,15.6,8,15.8V19  c0,1.7,1.3,3,3,3h2v-2h-2c-0.6,0-1-0.4-1-1v-3.2c0-0.7-0.2-1.3-0.6-1.8c0.4-0.5,0.6-1.2,0.6-1.8V9z" style="" fill="#fff"></path><path d="M18,9c0-0.6-0.4-1-1-1h-2V6h2c1.7,0,3,1.3,3,3v3.2c0,0.3,0,0.8,0.4,0.8s1.6,0,1.6,0v2c0,0-1.2,0-1.6,0S20,15.6,20,15.8V19  c0,1.7-1.3,3-3,3h-2v-2h2c0.6,0,1-0.4,1-1v-3.2c0-0.7,0.2-1.3,0.6-1.8c-0.4-0.5-0.6-1.2-0.6-1.8V9z" style="" fill="#fff"></path><polygon points="46.2,56.6 41.8,50 46.2,43.4 47.8,44.6 44.2,50 47.8,55.4 " style="" fill="#fff"></polygon><polygon points="53.8,56.6 52.2,55.4 55.8,50 52.2,44.6 53.8,43.4 58.2,50 " style="" fill="#fff"></polygon><rect x="49" y="43.9" transform="matrix(-0.9864 -0.1641 0.1641 -0.9864 91.1106 107.5242)" width="2" height="12.2" style="" fill="#fff"></rect><path d="M32,41c-5,0-9-4-9-9s4-9,9-9s9,4,9,9S37,41,32,41z M32,25c-3.9,0-7,3.1-7,7s3.1,7,7,7s7-3.1,7-7S35.9,25,32,25z" style="" fill="#fff"></path><path d="M36,50c0-0.5,0-1,0.1-1.5l0,0l-0.6,0.2L34.2,55h-4.4l-1.3-6.4l-0.6-0.2c-1.7-0.4-3.2-1.1-4.7-2l-0.5-0.3l-5.4,3.6l-3.1-3.1  l3.6-5.4l-0.3-0.5c-0.9-1.5-1.5-3-2-4.7l-0.2-0.6L9,34.2v-4.4l6.4-1.3l0.2-0.6l0,0C15,28,14.5,28,14,28c-1.3,0-2.5-0.2-3.6-0.5  L7,28.2v7.6l6.7,1.3c0.4,1.4,1,2.8,1.7,4.1L11.6,47l5.4,5.4l5.7-3.8c1.3,0.7,2.7,1.3,4.1,1.7l1.3,6.7h7.6l0.7-3.4  C36.2,52.5,36,51.3,36,50z" style="" fill="#fff"></path><path d="M27.9,15.5L27.9,15.5l0.6-0.2L29.8,9h4.4l1.3,6.4l0.6,0.2c1.7,0.4,3.2,1.1,4.7,2l0.5,0.3l5.4-3.6l3.1,3.1l-3.6,5.4l0.3,0.5  c0.9,1.5,1.5,3,2,4.7l0.2,0.6l6.4,1.3v4.4l-6.4,1.3l-0.2,0.6l0,0C49,36,49.5,36,50,36c1.3,0,2.5,0.2,3.6,0.5l3.4-0.7v-7.6l-6.7-1.3  c-0.4-1.4-1-2.8-1.7-4.1l3.8-5.7L47,11.6l-5.7,3.8c-1.3-0.7-2.7-1.3-4.1-1.7L35.8,7h-7.6l-0.7,3.4c0.3,1.2,0.5,2.4,0.5,3.6  C28,14.5,28,15,27.9,15.5z" style="" fill="#fff"></path><path d="M50,62c-6.6,0-12-5.4-12-12s5.4-12,12-12s12,5.4,12,12S56.6,62,50,62z M50,40c-5.5,0-10,4.5-10,10s4.5,10,10,10  s10-4.5,10-10S55.5,40,50,40z" style="" fill="#fff"></path></svg>