<svg xmlns="http://www.w3.org/2000/svg" xmlns:xlink="http://www.w3.org/1999/xlink" version="1.1" x="0px" y="0px" viewBox="0 0 128 128" style="enable-background:new 0 0 128 128;max-width:100%" xml:space="preserve" height="100%"><style type="text/css" style="" fill="#fff">
	.st0{display:none;}
	.st1{display:inline;}
	.st2{fill:none;stroke:#000000;stroke-width:0.1;stroke-miterlimit:10;}
</style><g class="st0" style="" fill="#fff"><g class="st1" style="" fill="#fff"><rect class="st2" width="128" height="128" style="" fill="#fff"></rect><line class="st2" x1="0" y1="124" x2="128" y2="124" style="" fill="#fff"></line><line class="st2" x1="0" y1="120" x2="128" y2="120" style="" fill="#fff"></line><line class="st2" x1="0" y1="116" x2="128" y2="116" style="" fill="#fff"></line><line class="st2" x1="0" y1="112" x2="128" y2="112" style="" fill="#fff"></line><line class="st2" x1="0" y1="108" x2="128" y2="108" style="" fill="#fff"></line><line class="st2" x1="0" y1="104" x2="128" y2="104" style="" fill="#fff"></line><line class="st2" x1="0" y1="100" x2="128" y2="100" style="" fill="#fff"></line><line class="st2" x1="0" y1="96" x2="128" y2="96" style="" fill="#fff"></line><line class="st2" x1="0" y1="92" x2="128" y2="92" style="" fill="#fff"></line><line class="st2" x1="0" y1="88" x2="128" y2="88" style="" fill="#fff"></line><line class="st2" x1="0" y1="84" x2="128" y2="84" style="" fill="#fff"></line><line class="st2" x1="0" y1="80" x2="128" y2="80" style="" fill="#fff"></line><line class="st2" x1="0" y1="76" x2="128" y2="76" style="" fill="#fff"></line><line class="st2" x1="0" y1="72" x2="128" y2="72" style="" fill="#fff"></line><line class="st2" x1="0" y1="68" x2="128" y2="68" style="" fill="#fff"></line><line class="st2" x1="0" y1="64" x2="128" y2="64" style="" fill="#fff"></line><line class="st2" x1="0" y1="60" x2="128" y2="60" style="" fill="#fff"></line><line class="st2" x1="0" y1="56" x2="128" y2="56" style="" fill="#fff"></line><line class="st2" x1="0" y1="52" x2="128" y2="52" style="" fill="#fff"></line><line class="st2" x1="0" y1="48" x2="128" y2="48" style="" fill="#fff"></line><line class="st2" x1="0" y1="44" x2="128" y2="44" style="" fill="#fff"></line><line class="st2" x1="0" y1="40" x2="128" y2="40" style="" fill="#fff"></line><line class="st2" x1="0" y1="36" x2="128" y2="36" style="" fill="#fff"></line><line class="st2" x1="0" y1="32" x2="128" y2="32" style="" fill="#fff"></line><line class="st2" x1="0" y1="28" x2="128" y2="28" style="" fill="#fff"></line><line class="st2" x1="0" y1="24" x2="128" y2="24" style="" fill="#fff"></line><line class="st2" x1="0" y1="20" x2="128" y2="20" style="" fill="#fff"></line><line class="st2" x1="0" y1="16" x2="128" y2="16" style="" fill="#fff"></line><line class="st2" x1="0" y1="12" x2="128" y2="12" style="" fill="#fff"></line><line class="st2" x1="0" y1="8" x2="128" y2="8" style="" fill="#fff"></line><line class="st2" x1="0" y1="4" x2="128" y2="4" style="" fill="#fff"></line><line class="st2" x1="124" y1="0" x2="124" y2="128" style="" fill="#fff"></line><line class="st2" x1="120" y1="0" x2="120" y2="128" style="" fill="#fff"></line><line class="st2" x1="116" y1="0" x2="116" y2="128" style="" fill="#fff"></line><line class="st2" x1="112" y1="0" x2="112" y2="128" style="" fill="#fff"></line><line class="st2" x1="108" y1="0" x2="108" y2="128" style="" fill="#fff"></line><line class="st2" x1="104" y1="0" x2="104" y2="128" style="" fill="#fff"></line><line class="st2" x1="100" y1="0" x2="100" y2="128" style="" fill="#fff"></line><line class="st2" x1="96" y1="0" x2="96" y2="128" style="" fill="#fff"></line><line class="st2" x1="92" y1="0" x2="92" y2="128" style="" fill="#fff"></line><line class="st2" x1="88" y1="0" x2="88" y2="128" style="" fill="#fff"></line><line class="st2" x1="84" y1="0" x2="84" y2="128" style="" fill="#fff"></line><line class="st2" x1="80" y1="0" x2="80" y2="128" style="" fill="#fff"></line><line class="st2" x1="76" y1="0" x2="76" y2="128" style="" fill="#fff"></line><line class="st2" x1="72" y1="0" x2="72" y2="128" style="" fill="#fff"></line><line class="st2" x1="68" y1="0" x2="68" y2="128" style="" fill="#fff"></line><line class="st2" x1="64" y1="0" x2="64" y2="128" style="" fill="#fff"></line><line class="st2" x1="60" y1="0" x2="60" y2="128" style="" fill="#fff"></line><line class="st2" x1="56" y1="0" x2="56" y2="128" style="" fill="#fff"></line><line class="st2" x1="52" y1="0" x2="52" y2="128" style="" fill="#fff"></line><line class="st2" x1="48" y1="0" x2="48" y2="128" style="" fill="#fff"></line><line class="st2" x1="44" y1="0" x2="44" y2="128" style="" fill="#fff"></line><line class="st2" x1="40" y1="0" x2="40" y2="128" style="" fill="#fff"></line><line class="st2" x1="36" y1="0" x2="36" y2="128" style="" fill="#fff"></line><line class="st2" x1="32" y1="0" x2="32" y2="128" style="" fill="#fff"></line><line class="st2" x1="28" y1="0" x2="28" y2="128" style="" fill="#fff"></line><line class="st2" x1="24" y1="0" x2="24" y2="128" style="" fill="#fff"></line><line class="st2" x1="20" y1="0" x2="20" y2="128" style="" fill="#fff"></line><line class="st2" x1="16" y1="0" x2="16" y2="128" style="" fill="#fff"></line><line class="st2" x1="12" y1="0" x2="12" y2="128" style="" fill="#fff"></line><line class="st2" x1="8" y1="0" x2="8" y2="128" style="" fill="#fff"></line><line class="st2" x1="4" y1="0" x2="4" y2="128" style="" fill="#fff"></line></g></g><g style="" fill="#fff"><g style="" fill="#fff"><path d="M21.1,88.6h10.6V70.3H21.1V88.6z M24.1,73.3h4.6v12.4h-4.6V73.3z" style="" fill="#fff"></path><path d="M39.9,88.6h11V60.8h-11V88.6z M42.9,63.8h5v21.8h-5V63.8z" style="" fill="#fff"></path><path d="M82.9,32.5c2.9,0,5.3-2.4,5.3-5.3c0-2.9-2.4-5.3-5.3-5.3s-5.3,2.4-5.3,5.3c0,0.5,0.1,1,0.2,1.4l-9.6,9.2    c-1-1-2.3-1.5-3.7-1.5c-2.5,0-4.7,1.8-5.2,4.2h-9.1c-0.8-1.8-2.7-3.1-4.8-3.1c-2.9,0-5.3,2.4-5.3,5.3c0,0.1,0,0.1,0,0.2l-9.8,9.9    c-0.9-0.9-2.2-1.4-3.6-1.4c-2.9,0-5.3,2.4-5.3,5.3s2.4,5.3,5.3,5.3c2.9,0,5.3-2.4,5.3-5.3c0-0.4-0.1-0.8-0.1-1.2l9.4-9.5    c1,1.2,2.4,2,4.1,2c2.6,0,4.8-1.9,5.2-4.5h8.9c0.8,2,2.7,3.4,4.9,3.4c2.9,0,5.3-2.4,5.3-5.3c0-0.3,0-0.7-0.1-1l9.8-9.4    C80.5,32.1,81.6,32.5,82.9,32.5z M82.9,25c1.3,0,2.3,1,2.3,2.3c0,1.3-1,2.3-2.3,2.3s-2.3-1-2.3-2.3C80.7,26,81.7,25,82.9,25z     M26.9,58.9c-1.3,0-2.3-1-2.3-2.3s1-2.3,2.3-2.3c1.3,0,2.3,1,2.3,2.3S28.2,58.9,26.9,58.9z M45.6,45c-1.3,0-2.3-1-2.3-2.3    s1-2.3,2.3-2.3c1.3,0,2.3,1,2.3,2.3S46.8,45,45.6,45z M64.6,43.9c-1.3,0-2.3-1-2.3-2.3c0-1.3,1-2.3,2.3-2.3s2.3,1,2.3,2.3    C66.9,42.9,65.9,43.9,64.6,43.9z" style="" fill="#fff"></path><path d="M112.6,108.3l-4.3-4.4c-0.6-0.6-1.4-1-2.3-1c0,0,0,0,0,0c-0.4,0-0.8,0.1-1.1,0.2l-5.4-5.5c4.4-4,7.1-9.7,7.1-16.1    c0-10.8-7.9-19.7-18.2-21.4V40.5H77.7v20.6c-3,1.1-5.7,2.8-8,4.9V50.8H59.1v37.8h5.2c0.4,1.1,0.8,2.1,1.3,3.1H17.6V15.5    c0-0.8-0.7-1.5-1.5-1.5s-1.5,0.7-1.5,1.5v79.2h53.1c4,5.2,10.2,8.6,17.2,8.6c4.5,0,8.7-1.4,12.2-3.7l5.6,5.7    c-0.4,1.2-0.2,2.5,0.7,3.5l4.3,4.4c0.6,0.6,1.4,1,2.3,1c0,0,0,0,0,0c0.9,0,1.7-0.3,2.3-0.9l0.3-0.3c0.6-0.6,1-1.4,1-2.3    C113.5,109.7,113.2,108.9,112.6,108.3z M80.7,43.5h4.6v16.4c-0.2,0-0.3,0-0.5,0c-1.4,0-2.8,0.1-4.1,0.4V43.5z M63.2,81.6    c0,1.4,0.1,2.7,0.4,4h-1.4V53.8h4.6v15.9C64.5,73.1,63.2,77.2,63.2,81.6z M84.9,100.2c-10.3,0-18.7-8.4-18.7-18.7    s8.4-18.7,18.7-18.7s18.7,8.4,18.7,18.7S95.2,100.2,84.9,100.2z" style="" fill="#fff"></path></g></g></svg>