<svg xmlns="http://www.w3.org/2000/svg" viewBox="0 0 64 64" x="0px" y="0px" style="max-width:100%" height="100%"><g style="" fill="#fff"><path d="M3,40h9V38H4V4H26V6h2V3a1,1,0,0,0-1-1H3A1,1,0,0,0,2,3V39A1,1,0,0,0,3,40Z" style="" fill="#fff"></path><path d="M11.447,7.105l-2-1a1,1,0,0,0-.894,0l-2,1A1,1,0,0,0,6,8v2a1,1,0,0,0,.553.895l2,1a1,1,0,0,0,.894,0l2-1A1,1,0,0,0,12,10V8A1,1,0,0,0,11.447,7.105ZM10,9.382l-1,.5-1-.5V8.618l1-.5,1,.5Z" style="" fill="#fff"></path><path d="M14,9V45a1,1,0,0,0,1,1H41a1,1,0,0,0,1-1V9a1,1,0,0,0-1-1H15A1,1,0,0,0,14,9Zm2,1H40V44H16Z" style="" fill="#fff"></path><path d="M33.928,21.648a.971.971,0,0,0-.081-.169c-.017-.027-.035-.053-.055-.079a1.059,1.059,0,0,0-.12-.131c-.025-.022-.048-.045-.074-.065s-.024-.023-.037-.032a1.106,1.106,0,0,0-.137-.07c-.019-.009-.033-.023-.052-.031l-5-2a1.017,1.017,0,0,0-.744,0l-5,2c-.02.008-.035.023-.054.032a1.074,1.074,0,0,0-.135.069c-.013.009-.023.022-.037.032s-.049.043-.074.065a1.059,1.059,0,0,0-.12.131c-.02.026-.038.052-.055.079a.971.971,0,0,0-.081.169c-.01.026-.023.052-.031.079A1,1,0,0,0,22,22v5a1,1,0,0,0,.628.929l5,2c.012,0,.025,0,.037.007a.909.909,0,0,0,.67,0c.012,0,.025,0,.037-.007l5-2A1,1,0,0,0,34,27V22a1,1,0,0,0-.041-.273C33.951,21.7,33.938,21.674,33.928,21.648ZM28,21.077,30.307,22,28,22.923,25.693,22Zm-4,2.4,3,1.2v2.846l-3-1.2Zm5,4.046V24.677l3-1.2v2.846Z" style="" fill="#fff"></path><path d="M61,8H45a1,1,0,0,0-1,1V19a1,1,0,0,0,1,1H61a1,1,0,0,0,1-1V9A1,1,0,0,0,61,8ZM60,18H46V10H60Z" style="" fill="#fff"></path><rect x="48" y="12" width="2" height="2" style="" fill="#fff"></rect><path d="M62,23a1,1,0,0,0-1-1H45a1,1,0,0,0-1,1V33a1,1,0,0,0,1,1H61a1,1,0,0,0,1-1Zm-2,9H46V24H60Z" style="" fill="#fff"></path><rect x="48" y="27" width="2" height="2" style="" fill="#fff"></rect><rect x="52" y="27" width="6" height="2" style="" fill="#fff"></rect><path d="M12,61a1,1,0,0,0,1,1H35a1,1,0,0,0,1-1V49a1,1,0,0,0-1-1H13a1,1,0,0,0-1,1Zm2-11H34V60H14Z" style="" fill="#fff"></path><path d="M61,48H39a1,1,0,0,0-1,1V61a1,1,0,0,0,1,1H61a1,1,0,0,0,1-1V49A1,1,0,0,0,61,48ZM40,50H60v1a1,1,0,0,1-1,1H41a1,1,0,0,1-1-1Zm0,10V53.816A2.966,2.966,0,0,0,41,54H59a2.966,2.966,0,0,0,1-.184V60Z" style="" fill="#fff"></path><path d="M21.447,53.105l-2-1a1,1,0,0,0-.894,0l-2,1A1,1,0,0,0,16,54v2a1,1,0,0,0,.553.9l2,1a1,1,0,0,0,.894,0l2-1A1,1,0,0,0,22,56V54A1,1,0,0,0,21.447,53.105ZM20,55.382l-1,.5-1-.5v-.764l1-.5,1,.5Z" style="" fill="#fff"></path><rect x="42" y="56" width="2" height="2" style="" fill="#fff"></rect><rect x="46" y="56" width="6" height="2" style="" fill="#fff"></rect></g></svg>