<svg xmlns="http://www.w3.org/2000/svg" xmlns:xlink="http://www.w3.org/1999/xlink" version="1.1" x="0px" y="0px" viewBox="0 0 100 100" enable-background="new 0 0 100 100" xml:space="preserve" style="max-width:100%" height="100%"><path d="M72.077,60.919c-4.343,0-8.196,2.097-10.632,5.322L40.448,54.508c0.512-1.414,0.806-2.932,0.806-4.522  c0-1.592-0.295-3.113-0.809-4.53l20.98-11.724c2.434,3.24,6.296,5.348,10.651,5.348c7.351,0,13.331-5.98,13.331-13.331  c0-7.351-5.98-13.331-13.331-13.331c-7.351,0-13.331,5.98-13.331,13.331c0,1.597,0.297,3.122,0.814,4.543L38.583,42.014  c-2.434-3.246-6.3-5.359-10.66-5.359c-7.351,0-13.331,5.98-13.331,13.331c0,7.351,5.98,13.331,13.331,13.331  c4.363,0,8.232-2.116,10.665-5.366l20.982,11.725c-0.524,1.429-0.825,2.965-0.825,4.573c0,7.351,5.98,13.331,13.331,13.331  c7.351,0,13.331-5.98,13.331-13.331C85.408,66.899,79.428,60.919,72.077,60.919z M72.077,16.332c5.193,0,9.418,4.225,9.418,9.418  c0,5.193-4.225,9.418-9.418,9.418s-9.418-4.225-9.418-9.418C62.659,20.557,66.884,16.332,72.077,16.332z M27.923,59.405  c-5.193,0-9.418-4.225-9.418-9.418c0-5.193,4.225-9.418,9.418-9.418s9.418,4.225,9.418,9.418  C37.341,55.18,33.116,59.405,27.923,59.405z M72.077,83.668c-5.193,0-9.418-4.225-9.418-9.418s4.225-9.418,9.418-9.418  s9.418,4.225,9.418,9.418S77.27,83.668,72.077,83.668z" style="" fill="#fff"></path></svg>